<?xml version="1.0" encoding="UTF-8"?>
<svg version="1.1" xmlns="http://www.w3.org/2000/svg" width="556" height="281">
<path d="M0 0 C183.48 0 366.96 0 556 0 C556 92.73 556 185.46 556 281 C372.52 281 189.04 281 0 281 C0 188.27 0 95.54 0 0 Z " fill="#0D1218" transform="translate(0,0)"/>
<path d="M0 0 C3.03153319 7.64473588 3.6623226 14.814234 4 23 C5.32 20.69 6.64 18.38 8 16 C11 17 11 17 12.1875 19.0625 C12.455625 19.701875 12.72375 20.34125 13 21 C13.10957031 20.07058594 13.21914063 19.14117187 13.33203125 18.18359375 C14.17043488 11.64677198 14.92743035 5.86581479 18 0 C22.52719083 0.55999529 26.00441385 1.74418512 30.0625 3.8125 C31.06410156 4.31394531 32.06570313 4.81539062 33.09765625 5.33203125 C37.81214841 8.04143657 41.23029135 10.86294399 44.1875 15.4375 C44.92033203 16.54931641 44.92033203 16.54931641 45.66796875 17.68359375 C50.01942032 25.2507808 50.01443994 32.84275743 48.34765625 41.31640625 C46.35343733 48.42883512 43.31258359 54.35631473 39.29296875 60.5390625 C38.86628906 61.35117188 38.43960938 62.16328125 38 63 C38.495 64.485 38.495 64.485 39 66 C39.60585938 64.85144531 40.21171875 63.70289063 40.8359375 62.51953125 C45.81471998 53.23149209 51.03543853 44.76325756 57.70605469 36.6015625 C60.07029287 33.67526014 62.34028262 30.67599193 64.625 27.6875 C65.47097835 26.58695059 66.31729587 25.48666177 67.1640625 24.38671875 C67.76992188 23.59910156 68.37578125 22.81148437 69 22 C76.07114001 22.76073993 80.12197307 28.4627602 84.3984375 33.71875 C89.28962123 40.63260369 89.80050789 47.77660079 89 56 C87.00808133 65.18421561 81.05900777 71.58421882 73.40234375 76.75390625 C71 78 71 78 68 78 C67.835 78.721875 67.67 79.44375 67.5 80.1875 C65.15129579 84.59132039 60.90689226 87.01407374 56.21484375 88.60546875 C52.97328918 89.18288852 49.71963411 89.37471813 46.4375 89.5625 C45.73238281 89.6049585 45.02726562 89.64741699 44.30078125 89.69116211 C38.53107883 90.01701917 32.77859428 90.11018506 27 90 C26.43152344 88.98421875 25.86304688 87.9684375 25.27734375 86.921875 C24.49762106 85.5311237 23.7176558 84.14050838 22.9375 82.75 C22.53136475 82.02578857 22.12522949 81.30157715 21.70678711 80.55541992 C18.68134486 75.17507729 15.57943204 69.84789232 12.41015625 64.55078125 C11.04759264 62.08608862 9.98318019 59.63606284 9 57 C5.85244893 60.79113979 3.79611658 65.07781464 1.5625 69.4375 C-2.27913876 76.83016051 -6.25595828 84.13314103 -10.375 91.375 C-10.87443115 92.25986084 -11.3738623 93.14472168 -11.88842773 94.05639648 C-12.60494507 95.30851929 -12.60494507 95.30851929 -13.3359375 96.5859375 C-13.75407715 97.3186084 -14.1722168 98.0512793 -14.60302734 98.80615234 C-17.75771936 103.76037508 -20.7347057 106.75862661 -25.8671875 109.6640625 C-27.00027344 110.31117188 -28.13335937 110.95828125 -29.30078125 111.625 C-30.4921327 112.2917646 -31.6835394 112.95843048 -32.875 113.625 C-34.05910759 114.29857667 -35.24270641 114.97304855 -36.42578125 115.6484375 C-41.56095146 118.56283603 -46.70196905 121.39108538 -52 124 C-52.99 124.495 -52.99 124.495 -54 125 C-53.45034854 120.2693932 -51.2892282 116.76862969 -48.8125 112.8125 C-48.40974854 112.15266113 -48.00699707 111.49282227 -47.59204102 110.81298828 C-45.77980713 107.8473833 -43.9384534 104.90344411 -42.0703125 101.97265625 C-41.53148437 101.11542969 -40.99265625 100.25820312 -40.4375 99.375 C-39.96183594 98.64023438 -39.48617187 97.90546875 -38.99609375 97.1484375 C-37.74005328 94.43933061 -37.39064015 92.94367679 -38 90 C-40.43665712 88.00392342 -40.43665712 88.00392342 -43.6875 86.375 C-55.4614507 79.68599776 -67.47474963 70.94576837 -71.49609375 57.45703125 C-73.24756175 48.91692761 -72.33163667 41.3205228 -67.7109375 33.94140625 C-64.58249244 29.5164131 -60.82631409 24.63353668 -56 22 C-52.6823601 22.43711722 -51.24013816 23.43725182 -49.15234375 26 C-48.63478516 26.63156006 -48.11722656 27.26312012 -47.58398438 27.91381836 C-47.04064453 28.6022583 -46.49730469 29.29069824 -45.9375 30 C-45.08575195 31.06456421 -45.08575195 31.06456421 -44.21679688 32.15063477 C-23 59.13582221 -23 59.13582221 -23 68 C-22.34 68 -21.68 68 -21 68 C-21.50107771 62.61169855 -22.87019732 58.80747314 -25.4375 54.0625 C-30.94806543 43.40864742 -33.47982542 31.8927693 -30.16015625 19.98828125 C-25.76224605 10.31880192 -17.57635725 4.94128989 -8 1 C-5.06189655 0.09165504 -3.19889663 0 0 0 Z " fill="#E8E8E7" transform="translate(277,18)"/>
<path d="M0 0 C-5.92612419 2.35934687 -11.91681602 4.28880921 -18.06469727 5.96899414 C-46.94346208 13.8802112 -74.56337093 25.87389601 -100.578125 40.63037109 C-102.77226528 41.8712105 -104.97611482 43.09102975 -107.1875 44.30078125 C-122.16185889 52.5270785 -136.81203529 61.41375865 -150.58984375 71.52734375 C-153.75998605 73.85036556 -157.0028783 76.05517883 -160.25854492 78.25610352 C-166.51746597 82.48912395 -172.54088389 86.7384177 -178 92 C-178.66 91.67 -179.32 91.34 -180 91 C-179.29822632 89.84552368 -179.29822632 89.84552368 -178.58227539 88.66772461 C-177.56376175 86.99191947 -176.54528161 85.31609386 -175.52742004 83.63989258 C-173.58753751 80.44545982 -171.64513246 77.25261356 -169.69775391 74.06274414 C-164.80429391 66.04420865 -164.80429391 66.04420865 -160.11328125 57.90625 C-159.72197021 57.21539307 -159.33065918 56.52453613 -158.92749023 55.81274414 C-157.95500542 54.08004735 -157.00385793 52.33542113 -156.0546875 50.58984375 C-153.90966421 47.88613568 -152.25936042 46.95118633 -149.05273438 45.78100586 C-146.67072685 44.87472112 -144.46947284 43.75517376 -142.20703125 42.58203125 C-102.16224452 22 -102.16224452 22 -90 22 C-90.32960216 16.98464948 -90.32960216 16.98464948 -93 13 C-93.25 9.5 -93.25 9.5 -93 6 C-91 4 -91 4 -88.0625 3.75 C-85 4 -85 4 -82 6 C-81.56867485 10.05445642 -81.69980639 11.54970958 -84 15 C-84.38499891 16.65549531 -84.72793135 18.3222433 -85 20 C-83.79988281 19.62488281 -82.59976563 19.24976562 -81.36328125 18.86328125 C-69.01079286 15.05093966 -56.6029633 11.86248268 -44 9 C-39.5202465 7.98172043 -35.04106823 6.96098042 -30.5625 5.9375 C-29.45616211 5.68605225 -28.34982422 5.43460449 -27.20996094 5.17553711 C-20.2207937 3.56916441 -13.36635946 1.770154 -6.5390625 -0.43359375 C-3.90740383 -1.02065607 -2.50681873 -0.9088703 0 0 Z " fill="#CCCACC" transform="translate(373,99)"/>
<path d="M0 0 C2.4242569 0.87305256 3.30195132 1.76130424 4.91870117 3.74584961 C5.69491821 4.69282715 5.69491821 4.69282715 6.48681641 5.65893555 C7.03023682 6.34761719 7.57365723 7.03629883 8.13354492 7.74584961 C8.70210205 8.45773438 9.27065918 9.16961914 9.85644531 9.90307617 C15.35554367 16.90652206 20.29416792 24.20322277 24.88598633 31.82836914 C25.97394245 33.58873325 27.14973025 35.29401456 28.33276367 36.99194336 C30.25072381 40.01966659 31.46014662 42.21103351 32.07104492 45.74584961 C30.61865793 50.99815522 28.02269277 55.24213124 25.07104492 59.74584961 C24.0578418 61.39520508 24.0578418 61.39520508 23.02416992 63.07788086 C21.41610595 65.66606647 19.76940772 68.2163731 18.07104492 70.74584961 C17.51288086 70.14901367 16.9547168 69.55217773 16.37963867 68.93725586 C14.0728031 66.74751854 11.86841185 65.29136911 9.13354492 63.68334961 C-2.02420484 56.71911653 -13.52347489 48.28987458 -17.42504883 35.20288086 C-19.17651682 26.66277722 -18.26059175 19.06637241 -13.63989258 11.68725586 C-4.91887402 -0.64808858 -4.91887402 -0.64808858 0 0 Z " fill="#918F95" transform="translate(222.928955078125,40.254150390625)"/>
<path d="M0 0 C7.07114001 0.76073993 11.12197307 6.4627602 15.3984375 11.71875 C20.28962123 18.63260369 20.80050789 25.77660079 20 34 C18.00808133 43.18421561 12.05900777 49.58421882 4.40234375 54.75390625 C2 56 2 56 -1 56 C-1.2475 57.0828125 -1.2475 57.0828125 -1.5 58.1875 C-3.87212696 62.63523806 -8.18196496 65.07016253 -12.9296875 66.63671875 C-15.40450457 67.0709791 -17.73860039 67.09554473 -20.25 67.0625 C-21.58804687 67.04896484 -21.58804687 67.04896484 -22.953125 67.03515625 C-23.62859375 67.02355469 -24.3040625 67.01195313 -25 67 C-25 66.67 -25 66.34 -25 66 C-23.02 66 -21.04 66 -19 66 C-19.35416992 65.44650879 -19.70833984 64.89301758 -20.07324219 64.32275391 C-21.67098078 61.77897196 -23.20988968 59.2040446 -24.75 56.625 C-25.30816406 55.75488281 -25.86632812 54.88476562 -26.44140625 53.98828125 C-30.24795129 47.4834258 -30.24795129 47.4834258 -29.54760742 43.29345703 C-28.5435612 40.71354596 -27.39035819 38.39162958 -26 36 C-25.47019531 35.02289063 -24.94039063 34.04578125 -24.39453125 33.0390625 C-19.87293013 26.13943412 -15.02900061 19.53770079 -10 13 C-9.06761201 11.78392801 -8.13532328 10.56777992 -7.203125 9.3515625 C-4.80774042 6.22998672 -2.4055945 3.11371313 0 0 Z " fill="#6F6C73" transform="translate(346,40)"/>
<path d="M0 0 C13.03287616 4.04399537 24.15583812 11.1508329 35.0625 19.16796875 C42.10605794 24.37322851 42.10605794 24.37322851 50 28 C48.62433955 32.71145884 46.65654947 36.52832571 44.0625 40.6875 C43.37285156 41.80511719 42.68320313 42.92273438 41.97265625 44.07421875 C38.73872746 48.87067947 38.73872746 48.87067947 37 50 C34.43359375 49.7421875 34.43359375 49.7421875 31.4375 48.875 C30.36886719 48.57078125 29.30023438 48.2665625 28.19921875 47.953125 C26.61560547 47.48132813 26.61560547 47.48132813 25 47 C24.09894531 46.76796875 23.19789063 46.5359375 22.26953125 46.296875 C12.79012398 43.76903306 5.60035921 39.19495601 0 31 C-3.0033078 25.34342027 -3.46429059 20.72455279 -3.375 14.375 C-3.39240234 13.12589844 -3.39240234 13.12589844 -3.41015625 11.8515625 C-3.38726936 7.06057432 -3.03490145 3.93413151 0 0 Z " fill="#4D4B53" transform="translate(190,83)"/>
<path d="M0 0 C3.20977688 2.68953782 4.77586349 6.17877564 6.5625 9.875 C6.86607422 10.48730469 7.16964844 11.09960938 7.48242188 11.73046875 C9.13915497 15.10168598 10.65920854 18.49126214 12 22 C7.83086967 20.61028989 7.34364217 18.51558555 5.3125 14.6875 C4.37857422 12.96080078 4.37857422 12.96080078 3.42578125 11.19921875 C2 8 2 8 2 4 C1.34 4.33 0.68 4.66 0 5 C-0.11249277 9.71662379 -0.11249277 9.71662379 0.5 14.375 C1.04736817 17.24868287 1.09771036 19.8900399 1.0625 22.8125 C1.05347656 23.78832031 1.04445313 24.76414062 1.03515625 25.76953125 C1.02355469 26.50558594 1.01195312 27.24164063 1 28 C1.99 28 2.98 28 4 28 C4 25.36 4 22.72 4 20 C4.99 20.66 5.98 21.32 7 22 C7.51171875 24.8203125 7.51171875 24.8203125 7.6875 28.125 C7.75324219 29.22070312 7.81898438 30.31640625 7.88671875 31.4453125 C7.94279297 32.70988281 7.94279297 32.70988281 8 34 C8.66 33.01 9.32 32.02 10 31 C12.03684712 35.07369424 12.0257259 37.58937864 11 42 C12.485 42.495 12.485 42.495 14 43 C10.37 43.66 6.74 44.32 3 45 C3 40 3 40 5 37 C5.39013716 35.0103005 5.73202649 33.00980131 6 31 C4.52168779 30.80587819 3.04230684 30.61987869 1.5625 30.4375 C0.73878906 30.33308594 -0.08492188 30.22867188 -0.93359375 30.12109375 C-1.61550781 30.08113281 -2.29742187 30.04117188 -3 30 C-4.39287806 31.17036305 -4.39287806 31.17036305 -4.1875 34.4375 C-4.39564928 38.05032721 -4.39564928 38.05032721 -2 40 C-1.875 43.625 -1.875 43.625 -2 47 C-3.47870133 47.5429357 -4.95801366 48.08420707 -6.4375 48.625 C-7.45972656 49.00140625 -8.48195313 49.3778125 -9.53515625 49.765625 C-11.84147489 50.58726726 -14.16245854 51.36886952 -16.49609375 52.109375 C-27.78983745 55.74540243 -38.31529965 60.82958981 -48.93505859 66.06201172 C-49.85233734 66.51395149 -49.85233734 66.51395149 -50.78814697 66.97502136 C-52.46468919 67.80328742 -54.13891918 68.63622909 -55.81298828 69.46948242 C-58.1332168 70.58373955 -60.4292003 71.60359535 -62.80444336 72.58251953 C-66.02440254 74.01082445 -66.97829298 74.59398112 -68.4375 77.6875 C-68.953125 78.780625 -69.46875 79.87375 -70 81 C-76.86079031 80.0931825 -80.72298479 75.40009711 -85.3125 70.5625 C-87.73476558 66.88424485 -90 62.49036363 -90 58 C-88.62511713 57.97250234 -87.25006609 57.9533836 -85.875 57.9375 C-85.10929688 57.92589844 -84.34359375 57.91429687 -83.5546875 57.90234375 C-81 58 -81 58 -78.25 58.46875 C-74.21136231 59.12891193 -70.2079437 59.35143257 -66.125 59.5625 C-65.34125 59.60568359 -64.5575 59.64886719 -63.75 59.69335938 C-61.83349351 59.79853351 -59.91676667 59.89967925 -58 60 C-58.99 61.98 -59.98 63.96 -61 66 C-60.505 66.495 -60.505 66.495 -60 67 C-55.07644595 64.33279829 -50.16658745 61.64372493 -45.27734375 58.9140625 C-42.25834358 57.22961412 -39.23621888 55.60059516 -36.12890625 54.0859375 C-26.85689987 49.21062082 -23.05641005 42.76419539 -18.421875 33.74902344 C-16.47322009 29.98153472 -14.44398756 26.25899792 -12.42100525 22.53103638 C-9.7448795 17.59532443 -7.10066764 12.64306797 -4.46704102 7.68457031 C-3.04333171 5.07929364 -1.54586094 2.53434913 0 0 Z " fill="#252329" transform="translate(285,74)"/>
<path d="M0 0 C3.45584474 8.41423068 6.62370676 18.55143523 3.03369141 27.375 C0.31081681 32.62513133 -2.97577769 37.50130413 -6.28515625 42.39501953 C-9.13943009 46.73088255 -11.68390903 51.2397328 -14.25 55.75 C-15.17119938 57.34934767 -16.09300842 58.94834445 -17.015625 60.546875 C-17.67046875 61.68640625 -18.3253125 62.8259375 -19 64 C-27.08685744 56.39310003 -30.85935474 44.02169727 -31.38110352 33.2512207 C-31.61627348 24.38500759 -30.23460027 17.76979366 -24.23828125 11.015625 C-17.63854208 4.7505582 -9.20958256 0 0 0 Z " fill="#A6A5AA" transform="translate(277,18)"/>
<path d="M0 0 C4.52719083 0.55999529 8.00441385 1.74418512 12.0625 3.8125 C13.06410156 4.31394531 14.06570313 4.81539062 15.09765625 5.33203125 C19.81214841 8.04143657 23.23029135 10.86294399 26.1875 15.4375 C26.92033203 16.54931641 26.92033203 16.54931641 27.66796875 17.68359375 C32.01942032 25.2507808 32.01443994 32.84275743 30.34765625 41.31640625 C28.15610898 49.13261132 24.80764037 56.4279793 20 63 C19.34 63 18.68 63 18 63 C17.69408936 62.46334717 17.38817871 61.92669434 17.07299805 61.3737793 C16.14608119 59.74826639 15.21816843 58.12332118 14.28955078 56.4987793 C13.210994 54.60612746 12.13784635 52.71038403 11.06982422 50.81176758 C8.40186519 46.09083802 5.68656699 41.45405778 2.68359375 36.9375 C-3.36917291 27.66451433 -6.36564568 21.59565605 -4.1171875 10.515625 C-2.95683584 6.86416874 -1.58207363 3.48592495 0 0 Z " fill="#C0BFC2" transform="translate(295,18)"/>
<path d="M0 0 C2.54649331 2.54649331 3.91597053 4.3367302 5.63671875 7.39453125 C6.127771 8.26110352 6.61882324 9.12767578 7.12475586 10.02050781 C7.64046143 10.94186523 8.15616699 11.86322266 8.6875 12.8125 C9.76559811 14.72006728 10.84372317 16.62761933 11.921875 18.53515625 C12.70981445 19.93531982 12.70981445 19.93531982 13.51367188 21.36376953 C15.14527843 24.25767354 16.79268401 27.14210384 18.44677734 30.02319336 C19.40327057 31.6903389 20.35408647 33.36073774 21.3046875 35.03125 C22.40287727 36.9543473 23.51162201 38.87147098 24.6328125 40.78125 C25.10460937 41.5959375 25.57640625 42.410625 26.0625 43.25 C26.46597656 43.93578125 26.86945313 44.6215625 27.28515625 45.328125 C27.52105469 45.87984375 27.75695312 46.4315625 28 47 C27.505 47.99 27.505 47.99 27 49 C26.05253906 48.56816406 25.10507812 48.13632813 24.12890625 47.69140625 C19.51370271 45.71412534 14.75358577 44.33548778 9.9375 42.9375 C7.36981813 42.18408559 4.80319211 41.42907765 2.24194336 40.65405273 C0.38680103 40.11284329 -1.49230733 39.65455849 -3.375 39.21875 C-6.99112058 37.53983687 -8.22681784 34.98568033 -9.9375 31.5625 C-10.61070186 30.29680177 -11.28652565 29.03249494 -11.96484375 27.76953125 C-12.29983887 27.13740723 -12.63483398 26.5052832 -12.97998047 25.85400391 C-15.02329911 22.14003507 -17.40994849 18.64034559 -19.75 15.109375 C-21 13 -21 13 -21 11 C-14.07 7.37 -7.14 3.74 0 0 Z " fill="#E4E4E3" transform="translate(335,121)"/>
<path d="M0 0 C1.6953125 0.8125 1.6953125 0.8125 2.9453125 3.0625 C3.68984739 5.79246128 3.8560536 7.99953084 3.6953125 10.8125 C4.6853125 11.1425 5.6753125 11.4725 6.6953125 11.8125 C3.3953125 12.4725 0.0953125 13.1325 -3.3046875 13.8125 C-3.3046875 14.4725 -3.3046875 15.1325 -3.3046875 15.8125 C-3.85511719 15.99683594 -4.40554688 16.18117188 -4.97265625 16.37109375 C-15.30398754 19.97504653 -25.29245406 24.41441017 -35.3046875 28.8125 C-36.22846191 29.21807129 -37.15223633 29.62364258 -38.10400391 30.04150391 C-48.65141892 34.69613608 -59.00359958 39.57645258 -69.15454102 45.04467773 C-76.19286441 48.81826808 -83.38160878 52.23802392 -90.62915039 55.58984375 C-91.89359985 56.17958984 -91.89359985 56.17958984 -93.18359375 56.78125 C-94.30616577 57.29848633 -94.30616577 57.29848633 -95.45141602 57.82617188 C-97.4734107 58.78655709 -97.4734107 58.78655709 -99.3046875 60.8125 C-100.2946875 60.8125 -101.2846875 60.8125 -102.3046875 60.8125 C-102.3046875 61.4725 -102.3046875 62.1325 -102.3046875 62.8125 C-105.0546875 65 -105.0546875 65 -108.3046875 66.8125 C-110.5078125 66.42578125 -110.5078125 66.42578125 -112.3046875 65.8125 C-111.36878246 64.7069811 -110.43088892 63.60314547 -109.4921875 62.5 C-108.70908203 61.57767578 -108.70908203 61.57767578 -107.91015625 60.63671875 C-106.43296281 58.95825321 -104.90429619 57.37367966 -103.3046875 55.8125 C-103.9646875 55.1525 -104.6246875 54.4925 -105.3046875 53.8125 C-81.29897019 40.14659466 -55.64325319 29.95908996 -29.3046875 21.8125 C-27.56079295 21.26169718 -25.81727258 20.70970756 -24.07421875 20.15625 C-20.49020452 19.02229264 -16.90057567 17.90833728 -13.3046875 16.8125 C-14.04332031 17.00585938 -14.78195312 17.19921875 -15.54296875 17.3984375 C-22.42564192 19.16501943 -29.29665292 20.63989579 -36.3046875 21.8125 C-34.94202847 18.56563325 -33.66764763 17.07592262 -30.6640625 15.26171875 C-29.92945801 14.81344727 -29.19485352 14.36517578 -28.43798828 13.90332031 C-27.65149902 13.44022461 -26.86500977 12.97712891 -26.0546875 12.5 C-25.25144043 12.02014648 -24.44819336 11.54029297 -23.62060547 11.04589844 C-4.32941738 -0.35222379 -4.32941738 -0.35222379 0 0 Z " fill="#AC282E" transform="translate(380.3046875,83.1875)"/>
<path d="M0 0 C0.99 0.33 1.98 0.66 3 1 C3.72790099 8.74810168 2.35178114 13.56558074 -2 20 C-2.66 20 -3.32 20 -4 20 C-4 20.66 -4 21.32 -4 22 C-13.34614637 29.38408856 -25.19330548 32.9594605 -37 32 C-37.33 32.66 -37.66 33.32 -38 34 C-39.98 30.04 -41.96 26.08 -44 22 C-42.02 21.34 -40.04 20.68 -38 20 C-37.38125 19.51144531 -36.7625 19.02289063 -36.125 18.51953125 C-32.53215583 15.95038349 -28.0917299 15.20095906 -23.84375 14.15820312 C-18.48533664 12.66364567 -17.00578897 10.80177906 -14 6 C-11.0546875 4.35546875 -11.0546875 4.35546875 -7.875 3.1875 C-6.29332031 2.59001953 -6.29332031 2.59001953 -4.6796875 1.98046875 C-3.79539062 1.65691406 -2.91109375 1.33335938 -2 1 C-1.34 0.67 -0.68 0.34 0 0 Z " fill="#3B3941" transform="translate(380,99)"/>
<path d="M0 0 C1.0828125 0.3403125 1.0828125 0.3403125 2.1875 0.6875 C1.445 1.409375 0.7025 2.13125 -0.0625 2.875 C-2.50540515 5.37342573 -4.6806047 7.92393202 -6.8125 10.6875 C-6.3175 11.6775 -6.3175 11.6775 -5.8125 12.6875 C-6.87726563 13.37714844 -7.94203125 14.06679687 -9.0390625 14.77734375 C-9.73435059 15.22770996 -10.42963867 15.67807617 -11.14599609 16.14208984 C-12.68732436 17.13953581 -14.22932887 18.13593748 -15.77197266 19.13134766 C-19.41783668 21.484512 -23.05824663 23.84365785 -26.671875 26.24609375 C-34.36433872 31.33547236 -42.04131714 35.60772533 -50.75 38.74609375 C-58.64174306 41.59698593 -65.66823595 45.21817236 -72.89672852 49.47338867 C-73.63592529 49.90240479 -74.37512207 50.3314209 -75.13671875 50.7734375 C-76.1280481 51.3619751 -76.1280481 51.3619751 -77.1394043 51.96240234 C-77.69152588 52.20168457 -78.24364746 52.4409668 -78.8125 52.6875 C-79.4725 52.3575 -80.1325 52.0275 -80.8125 51.6875 C-74.22839929 45.47439325 -67.21446133 40.32302916 -59.6875 35.3125 C-58.5635588 34.55867069 -57.43994567 33.80435201 -56.31665039 33.04956055 C-54.12197787 31.57608589 -51.92478725 30.10662625 -49.72607422 28.63916016 C-47.36939413 27.06053601 -45.02529135 25.46743432 -42.69140625 23.85546875 C-32.26824833 16.69387145 -21.30879703 10.44585823 -10.34521484 4.15454102 C-8.59223004 3.13914814 -6.86557844 2.07741869 -5.16259766 0.98022461 C-2.8125 -0.3125 -2.8125 -0.3125 0 0 Z " fill="#740A0B" transform="translate(275.8125,138.3125)"/>
<path d="M0 0 C0.85078125 -0.020625 1.7015625 -0.04125 2.578125 -0.0625 C7.4084656 -0.09259558 10.72858548 0.05214585 14.625 3.25 C16.70476567 7.40953134 16.0452152 12.76308469 14.8125 17.125 C13.57672043 19.33639502 12.59078347 20.65870455 10.625 22.25 C7.17656007 22.88195306 3.68737369 22.71339012 0.1875 22.6875 C-0.76705078 22.70748047 -1.72160156 22.72746094 -2.70507812 22.74804688 C-9.70160109 22.74315078 -9.70160109 22.74315078 -12.97265625 20.34765625 C-15.22971287 16.97150192 -15.55979426 14.92862362 -15.625 10.875 C-15.65078125 9.91851562 -15.6765625 8.96203125 -15.703125 7.9765625 C-15.3227363 4.81571355 -14.58348261 3.51008267 -12.375 1.25 C-8.23358936 -0.13047021 -4.33798777 0.02605398 0 0 Z " fill="#DEDEDE" transform="translate(162.375,230.75)"/>
<path d="M0 0 C0.79470703 -0.02900391 1.58941406 -0.05800781 2.40820312 -0.08789062 C7.82485065 -0.14613415 10.90274123 0.68693489 15.1875 4.3125 C17.03612688 8.00975375 16.66337094 12.27711442 16.1875 16.3125 C14.39103146 19.24673195 13.2433929 20.78455355 10.1875 22.3125 C6.92404645 22.6298081 3.65199132 22.63669393 0.375 22.6875 C-0.97948242 22.74357422 -0.97948242 22.74357422 -2.36132812 22.80078125 C-6.86121438 22.86029481 -9.13270498 22.78194335 -12.91796875 20.16796875 C-15.10512378 16.87145262 -15.43147434 15.17119591 -15.3125 11.25 C-15.3021875 10.22777344 -15.291875 9.20554688 -15.28125 8.15234375 C-14.76004866 4.9947323 -14.03679149 3.58400523 -11.8125 1.3125 C-7.83227513 -0.01424162 -4.16886239 0.04998636 0 0 Z " fill="#DEDEDE" transform="translate(320.8125,230.6875)"/>
<path d="M0 0 C3.92958934 1.12085602 7.29136636 3.23438621 10.75 5.375 C11.71421875 5.96023437 12.6784375 6.54546875 13.671875 7.1484375 C16 9 16 9 16.828125 11.2265625 C16.88484375 11.81179687 16.9415625 12.39703125 17 13 C17.66 13 18.32 13 19 13 C20.01866229 14.65532623 21.01810813 16.32260138 22 18 C22.66 18.33 23.32 18.66 24 19 C24 19.99 24 20.98 24 22 C24.639375 22.226875 25.27875 22.45375 25.9375 22.6875 C30.13320261 24.48565826 34.03900556 26.73904021 38 29 C33.73204759 32.38492778 30.60373548 33.1682455 25.1875 33.25 C23.66189453 33.28867188 23.66189453 33.28867188 22.10546875 33.328125 C13.75266798 32.44556492 8.10625043 26.17815922 3 20 C-0.57644025 15.16214952 -3.80667774 10.09572701 -7 5 C-4.702779 3.25728062 -2.40133271 1.60088848 0 0 Z " fill="#4F4C53" transform="translate(305,149)"/>
<path d="M0 0 C-5.92637026 2.35944483 -11.91732552 4.28888441 -18.06542969 5.96923828 C-36.35531367 10.97937224 -53.93976904 17.61096418 -70.95874023 25.98925781 C-71.81153564 26.39756836 -72.66433105 26.80587891 -73.54296875 27.2265625 C-74.28571045 27.59346191 -75.02845215 27.96036133 -75.79370117 28.33837891 C-78.55923141 29.16770135 -80.23993585 28.7516545 -83 28 C-84.02738281 27.75121094 -85.05476563 27.50242187 -86.11328125 27.24609375 C-87.16902344 26.97925781 -88.22476562 26.71242188 -89.3125 26.4375 C-90.38113281 26.16808594 -91.44976562 25.89867188 -92.55078125 25.62109375 C-93.35902344 25.41613281 -94.16726563 25.21117188 -95 25 C-93.625 23.5 -93.625 23.5 -92 22 C-91.34 22 -90.68 22 -90 22 C-90.32960216 16.98464948 -90.32960216 16.98464948 -93 13 C-93.25 9.5 -93.25 9.5 -93 6 C-91 4 -91 4 -88.0625 3.75 C-85 4 -85 4 -82 6 C-81.56867485 10.05445642 -81.69980639 11.54970958 -84 15 C-84.38499891 16.65549531 -84.72793135 18.3222433 -85 20 C-83.79988281 19.62488281 -82.59976562 19.24976562 -81.36328125 18.86328125 C-69.01079286 15.05093966 -56.6029633 11.86248268 -44 9 C-39.5202465 7.98172043 -35.04106823 6.96098042 -30.5625 5.9375 C-29.45616211 5.68605225 -28.34982422 5.43460449 -27.20996094 5.17553711 C-20.2207937 3.56916441 -13.36635946 1.770154 -6.5390625 -0.43359375 C-3.90740383 -1.02065607 -2.50681873 -0.9088703 0 0 Z " fill="#EBE6E5" transform="translate(373,99)"/>
<path d="M0 0 C2.15719852 2.62615473 3.51856427 4.61329393 4 8 C2.72359574 10.71750584 1.40989214 13.18661463 -0.125 15.75 C-0.74652954 16.81927734 -0.74652954 16.81927734 -1.38061523 17.91015625 C-4.15900237 22.66596384 -7.01171558 27.37297896 -10 32 C-10.55816406 31.40316406 -11.11632812 30.80632812 -11.69140625 30.19140625 C-13.99824182 28.00166893 -16.20263307 26.5455195 -18.9375 24.9375 C-23.57303355 22.05275264 -27.77547968 18.89015994 -31.9375 15.375 C-32.48075928 14.91988037 -33.02401855 14.46476074 -33.58374023 13.99584961 C-36.77573371 11.25396448 -39.66906007 8.51685674 -42 5 C-41.67 4.01 -41.34 3.02 -41 2 C-39.35 2.33 -37.7 2.66 -36 3 C-36.33 3.99 -36.66 4.98 -37 6 C-35.6078125 5.7525 -35.6078125 5.7525 -34.1875 5.5 C-30.09934172 4.85872027 -26.41129875 5.11423071 -22.3125 5.5 C-21.31863281 5.5928125 -20.32476562 5.685625 -19.30078125 5.78125 C-18.16189453 5.88953125 -18.16189453 5.88953125 -17 6 C-17.33 7.32 -17.66 8.64 -18 10 C-17.01 10.33 -16.02 10.66 -15 11 C-15 11.66 -15 12.32 -15 13 C-13.68 13 -12.36 13 -11 13 C-10.67 11.68 -10.34 10.36 -10 9 C-6.535 8.505 -6.535 8.505 -3 8 C-2.01 5.36 -1.02 2.72 0 0 Z " fill="#76737A" transform="translate(251,79)"/>
<path d="M0 0 C-0.66130925 3.58943343 -1.50300569 6.31797905 -3.3125 9.5 C-3.72113281 10.2321875 -4.12976563 10.964375 -4.55078125 11.71875 C-7.84507634 16.90437892 -10.63066537 19.68607186 -16.25 22.3125 C-17.32765625 22.82425781 -18.4053125 23.33601563 -19.515625 23.86328125 C-20.33546875 24.23839844 -21.1553125 24.61351562 -22 25 C-24.00695291 21.54565686 -26.00436779 18.0858937 -28 14.625 C-28.57234375 13.64015625 -29.1446875 12.6553125 -29.734375 11.640625 C-30.27578125 10.69960937 -30.8171875 9.75859375 -31.375 8.7890625 C-31.87773437 7.91975098 -32.38046875 7.05043945 -32.8984375 6.15478516 C-34 4 -34 4 -34 2 C-30.3965669 1.65841653 -26.79216548 1.32830184 -23.1875 1 C-22.18267578 0.90460938 -21.17785156 0.80921875 -20.14257812 0.7109375 C-13.40797288 0.10460648 -6.76066746 -0.12017481 0 0 Z " fill="#39363E" transform="translate(378,132)"/>
<path d="M0 0 C1.37488287 -0.02749766 2.74993391 -0.0466164 4.125 -0.0625 C5.27355469 -0.07990234 5.27355469 -0.07990234 6.4453125 -0.09765625 C9 0 9 0 11.75 0.46875 C15.78863769 1.12891193 19.7920563 1.35143257 23.875 1.5625 C24.65875 1.60568359 25.4425 1.64886719 26.25 1.69335938 C28.16650649 1.79853351 30.08323333 1.89967925 32 2 C31.01 3.98 30.02 5.96 29 8 C29.33 8.33 29.66 8.66 30 9 C31.37285156 8.22462891 31.37285156 8.22462891 32.7734375 7.43359375 C33.9737254 6.76780906 35.17425906 6.10246729 36.375 5.4375 C36.97828125 5.09525391 37.5815625 4.75300781 38.203125 4.40039062 C39.76978241 3.53872905 41.38290862 2.76281817 43 2 C43.66 2.33 44.32 2.66 45 3 C44.38511719 3.39832031 43.77023438 3.79664063 43.13671875 4.20703125 C42.32847656 4.73683594 41.52023438 5.26664063 40.6875 5.8125 C39.88699219 6.33457031 39.08648437 6.85664063 38.26171875 7.39453125 C36.26807281 8.80970997 34.69297041 10.25351616 33 12 C28.61111111 14.92592593 28.61111111 14.92592593 25.9375 15.25 C22.55427547 16.5596353 21.59318602 19.87052747 20 23 C13.13920969 22.0931825 9.27701521 17.40009711 4.6875 12.5625 C2.26523442 8.88424485 0 4.49036363 0 0 Z " fill="#5F5D64" transform="translate(195,132)"/>
<path d="M0 0 C2.91644092 0.3527552 4.59153741 0.63052299 6.80078125 2.62890625 C7.29964844 3.26699219 7.79851562 3.90507813 8.3125 4.5625 C8.82425781 5.20316406 9.33601563 5.84382813 9.86328125 6.50390625 C10.23839844 6.99761719 10.61351562 7.49132813 11 8 C10.2575 8.721875 9.515 9.44375 8.75 10.1875 C5.98130548 12.88695198 5.98130548 12.88695198 3.9375 15.8125 C2.9784375 16.8953125 2.9784375 16.8953125 2 18 C0.68 18 -0.64 18 -2 18 C-2.33 17.34 -2.66 16.68 -3 16 C-3.86625 16.99 -3.86625 16.99 -4.75 18 C-7 20 -7 20 -11 20 C-11.33 20.99 -11.66 21.98 -12 23 C-10.35 23 -8.7 23 -7 23 C-9.625 26.875 -9.625 26.875 -13 28 C-13 28.99 -13 29.98 -13 31 C-12.01 31.66 -11.02 32.32 -10 33 C-11.32 34.32 -12.64 35.64 -14 37 C-13.67 37.66 -13.34 38.32 -13 39 C-13.33 39.66 -13.66 40.32 -14 41 C-16.1796875 41.37890625 -16.1796875 41.37890625 -18.875 41.5625 C-21.86796839 41.77628346 -24.1328687 42.04428957 -27 43 C-26.74430801 31.4938604 -16.67695167 21.68003717 -10 13 C-9.06761201 11.78392801 -8.13532328 10.56777992 -7.203125 9.3515625 C-4.80774042 6.22998672 -2.4055945 3.11371313 0 0 Z " fill="#A7A5AA" transform="translate(346,40)"/>
<path d="M0 0 C1.46953125 0.01450195 1.46953125 0.01450195 2.96875 0.02929688 C4.49242187 0.06700195 4.49242187 0.06700195 6.046875 0.10546875 C7.59375 0.12577148 7.59375 0.12577148 9.171875 0.14648438 C11.71407292 0.18179268 14.25520723 0.23110839 16.796875 0.29296875 C16.136875 1.94296875 15.476875 3.59296875 14.796875 5.29296875 C8.856875 5.29296875 2.916875 5.29296875 -3.203125 5.29296875 C-2.873125 6.28296875 -2.543125 7.27296875 -2.203125 8.29296875 C-0.41455078 8.34904297 -0.41455078 8.34904297 1.41015625 8.40625 C2.976594 8.47190907 4.54299884 8.53835643 6.109375 8.60546875 C6.89505859 8.62802734 7.68074219 8.65058594 8.49023438 8.67382812 C9.24755859 8.70927734 10.00488281 8.74472656 10.78515625 8.78125 C11.82990112 8.82052612 11.82990112 8.82052612 12.89575195 8.8605957 C15.35286104 9.41941684 16.27638438 10.30904594 17.796875 12.29296875 C18.22166086 16.370913 18.10970087 17.82372994 15.796875 21.29296875 C12.73768112 22.31270004 10.67269475 22.40830477 7.47265625 22.390625 C6.44462891 22.38740234 5.41660156 22.38417969 4.35742188 22.38085938 C3.28556641 22.37248047 2.21371094 22.36410156 1.109375 22.35546875 C0.02591797 22.35095703 -1.05753906 22.34644531 -2.17382812 22.34179688 C-4.85031585 22.33000618 -7.52669277 22.31354938 -10.203125 22.29296875 C-9.543125 20.64296875 -8.883125 18.99296875 -8.203125 17.29296875 C-1.603125 17.29296875 4.996875 17.29296875 11.796875 17.29296875 C11.466875 16.30296875 11.136875 15.31296875 10.796875 14.29296875 C9.00830078 14.23689453 9.00830078 14.23689453 7.18359375 14.1796875 C5.617156 14.11402843 4.05075116 14.04758107 2.484375 13.98046875 C1.30584961 13.94663086 1.30584961 13.94663086 0.10351562 13.91210938 C-0.65380859 13.87666016 -1.41113281 13.84121094 -2.19140625 13.8046875 C-2.88790283 13.77850342 -3.58439941 13.75231934 -4.30200195 13.7253418 C-6.77269188 13.16343197 -7.68445319 12.29956725 -9.203125 10.29296875 C-9.640625 6.79296875 -9.640625 6.79296875 -9.203125 3.29296875 C-6.25808462 0.35088524 -4.08375366 -0.07122826 0 0 Z " fill="#DADADB" transform="translate(191.203125,230.70703125)"/>
<path d="M0 0 C7 0 7 0 9.07983398 1.28515625 C9.62969971 1.87167969 10.17956543 2.45820313 10.74609375 3.0625 C11.35517578 3.69414062 11.96425781 4.32578125 12.59179688 4.9765625 C13.20087891 5.64429688 13.80996094 6.31203125 14.4375 7 C15.07365234 7.66773438 15.70980469 8.33546875 16.36523438 9.0234375 C17.92652181 10.66689796 19.46554138 12.33146247 21 14 C21.33 9.38 21.66 4.76 22 0 C23.98 0 25.96 0 28 0 C28 7.26 28 14.52 28 22 C21 22 21 22 19.04370117 20.82250977 C18.30083862 20.01511353 18.30083862 20.01511353 17.54296875 19.19140625 C16.98802734 18.60939453 16.43308594 18.02738281 15.86132812 17.42773438 C15.30896484 16.81220703 14.75660156 16.19667969 14.1875 15.5625 C13.05776933 14.35380282 11.92633755 13.1466927 10.79296875 11.94140625 C10.3033667 11.40201416 9.81376465 10.86262207 9.30932617 10.30688477 C8.01200403 8.87460938 8.01200403 8.87460938 6 8 C6 12.62 6 17.24 6 22 C4.02 22 2.04 22 0 22 C0 14.74 0 7.48 0 0 Z " fill="#DFDFE0" transform="translate(247,231)"/>
<path d="M0 0 C2.18945312 0.03125 2.18945312 0.03125 4.234375 0.46875 C6.35362553 2.72759188 7.54688364 4.32804992 8.984375 6.96875 C9.36070068 7.60570801 9.73702637 8.24266602 10.12475586 8.89892578 C12.70215811 13.31524534 15.09742168 17.82319931 17.234375 22.46875 C13.921875 22.78125 13.921875 22.78125 10.234375 22.46875 C9.821875 21.64375 9.409375 20.81875 8.984375 19.96875 C8.406875 19.14375 7.829375 18.31875 7.234375 17.46875 C2.32845216 16.7425189 -3.0439195 16.82411101 -7.765625 18.46875 C-8.44625 19.4896875 -8.44625 19.4896875 -9.140625 20.53125 C-9.676875 21.170625 -10.213125 21.81 -10.765625 22.46875 C-13.953125 22.71875 -13.953125 22.71875 -16.765625 22.46875 C-15.09449844 17.61770833 -12.43826102 13.52068955 -9.703125 9.21875 C-9.24357422 8.4865625 -8.78402344 7.754375 -8.31054688 7 C-4.22856844 0.52637781 -4.22856844 0.52637781 0 0 Z " fill="#96989D" transform="translate(128.765625,230.53125)"/>
<path d="M0 0 C3.34125 -0.061875 6.6825 -0.12375 10.125 -0.1875 C11.68758545 -0.22846802 11.68758545 -0.22846802 13.28173828 -0.27026367 C18.63661858 -0.31815787 22.34829621 0.01633141 27 3 C27.1953125 9.0546875 27.1953125 9.0546875 27 11 C26.34 11.66 25.68 12.32 25 13 C23.68 13 22.36 13 21 13 C23.49825283 16.21203935 26.0702992 19.17493137 29 22 C23.56912321 22.54654684 20.89432803 21.7656203 16.76367188 18.49414062 C16.20228516 18.02169922 15.64089844 17.54925781 15.0625 17.0625 C14.47404297 16.59392578 13.88558594 16.12535156 13.27929688 15.64257812 C11.82168774 14.46599467 10.40646531 13.23726648 9 12 C9 11.67 9 11.34 9 11 C9.69867188 10.93941406 10.39734375 10.87882813 11.1171875 10.81640625 C12.48230469 10.69072266 12.48230469 10.69072266 13.875 10.5625 C14.77992188 10.48128906 15.68484375 10.40007812 16.6171875 10.31640625 C19.01110861 10.13010715 19.01110861 10.13010715 21 9 C21 8.01 21 7.02 21 6 C16.05 5.67 11.1 5.34 6 5 C6 10.61 6 16.22 6 22 C4.02 22 2.04 22 0 22 C0 14.74 0 7.48 0 0 Z " fill="#DBDBDC" transform="translate(433,231)"/>
<path d="M0 0 C1.6953125 0.8125 1.6953125 0.8125 2.9453125 3.0625 C3.68984739 5.79246128 3.8560536 7.99953084 3.6953125 10.8125 C4.6853125 11.1425 5.6753125 11.4725 6.6953125 11.8125 C1.58887417 13.50711449 -3.41303011 14.90579003 -8.7421875 15.6875 C-15.29127481 16.68056422 -21.60203182 18.38969985 -27.98217773 20.13623047 C-28.77180908 20.35166504 -29.56144043 20.56709961 -30.375 20.7890625 C-31.43871826 21.08417725 -31.43871826 21.08417725 -32.52392578 21.38525391 C-34.3046875 21.8125 -34.3046875 21.8125 -36.3046875 21.8125 C-34.94202847 18.56563325 -33.66764763 17.07592262 -30.6640625 15.26171875 C-29.92945801 14.81344727 -29.19485352 14.36517578 -28.43798828 13.90332031 C-27.65149902 13.44022461 -26.86500977 12.97712891 -26.0546875 12.5 C-25.25144043 12.02014648 -24.44819336 11.54029297 -23.62060547 11.04589844 C-4.32941738 -0.35222379 -4.32941738 -0.35222379 0 0 Z " fill="#625D64" transform="translate(380.3046875,83.1875)"/>
<path d="M0 0 C8.25 0 16.5 0 25 0 C24.34 1.65 23.68 3.3 23 5 C17.06 5 11.12 5 5 5 C5 6.32 5 7.64 5 9 C10.61 9 16.22 9 22 9 C21.34 10.32 20.68 11.64 20 13 C15.05 13 10.1 13 5 13 C5 14.65 5 16.3 5 18 C11.27 18 17.54 18 24 18 C23.67 19.32 23.34 20.64 23 22 C15.41 22 7.82 22 0 22 C0 14.74 0 7.48 0 0 Z " fill="#DCDBDC" transform="translate(404,231)"/>
<path d="M0 0 C1.98 0 3.96 0 6 0 C6 5.61 6 11.22 6 17 C10.95 16.67 15.9 16.34 21 16 C21.33 10.72 21.66 5.44 22 0 C23.98 0 25.96 0 28 0 C28.08107646 2.75059381 28.14052813 5.49879021 28.1875 8.25 C28.21263672 9.02730469 28.23777344 9.80460938 28.26367188 10.60546875 C28.30826969 14.08409859 28.3343028 16.37281244 26.67578125 19.484375 C22.86370959 22.93212279 17.89002781 22.21947018 13.0625 22.25 C11.84530273 22.2809375 11.84530273 22.2809375 10.60351562 22.3125 C7.28527558 22.3342768 4.58826911 22.20990307 1.44921875 21.08984375 C-1.03411585 17.50875477 -0.41085894 13.54123407 -0.25 9.3125 C-0.23195312 8.41982422 -0.21390625 7.52714844 -0.1953125 6.60742188 C-0.14817759 4.40386496 -0.08240657 2.20247399 0 0 Z " fill="#999A9E" transform="translate(214,231)"/>
<path d="M0 0 C-0.99082434 6.06879907 -3.28055834 8.67515023 -7.9296875 12.6171875 C-10.02703161 14.01805508 -11.57975535 14.42821104 -14 15 C-15.46394083 16.2362167 -16.92600537 17.47506771 -18.36328125 18.7421875 C-20.95257729 20.73205224 -24.0098578 21.71851049 -27 23 C-28.04835921 23.8418246 -29.06998659 24.71800341 -30.0625 25.625 C-33.28136073 28.22748314 -35.03292992 28.36887522 -39 29 C-40.43637698 30.95163118 -40.43637698 30.95163118 -41 33 C-44.9492568 32.44894091 -48.34920174 31.61064629 -52 30 C-49.34060255 28.22706837 -46.68783264 26.86095734 -43.81054688 25.48876953 C-35.33874493 21.42350912 -27.6955785 16.63587152 -19.96337891 11.32617188 C-16.41990678 8.93271992 -12.80743667 6.65050523 -9.1875 4.375 C-8.49914062 3.93687988 -7.81078125 3.49875977 -7.1015625 3.04736328 C-2.23757274 0 -2.23757274 0 0 0 Z " fill="#0B0307" transform="translate(277,147)"/>
<path d="M0 0 C1.98 0 3.96 0 6 0 C6 3.3 6 6.6 6 10 C6.92941406 9.278125 7.85882813 8.55625 8.81640625 7.8125 C10.06444612 6.87412416 11.3131813 5.93667258 12.5625 5 C13.17158203 4.52304688 13.78066406 4.04609375 14.40820312 3.5546875 C18.71143526 0.36710814 21.47144924 -0.56922016 27 0 C23.29909479 3.9252025 19.45040344 6.94580156 15 10 C18.45454502 13.58924059 22.20133304 16.52100408 26.171875 19.51171875 C26.77515625 20.00285156 27.3784375 20.49398437 28 21 C28 21.33 28 21.66 28 22 C22.18935169 22.50970599 19.2338687 22.11273918 14.67578125 18.4453125 C14.12277344 17.96835938 13.56976563 17.49140625 13 17 C12.41605469 16.52304688 11.83210938 16.04609375 11.23046875 15.5546875 C9.80597396 14.38706882 8.4008679 13.19586284 7 12 C6.67 15.3 6.34 18.6 6 22 C4.02 22 2.04 22 0 22 C0 14.74 0 7.48 0 0 Z " fill="#98999C" transform="translate(372,231)"/>
<path d="M0 0 C1.4036827 4.21104811 -0.14075051 6.07491775 -2 10 C-2.391875 10.66 -2.78375 11.32 -3.1875 12 C-5.22357606 17.01187952 -3.84538571 22.82201251 -3 28 C-4.32 27.01 -5.64 26.02 -7 25 C-10.12310815 28.47865609 -10.12310815 28.47865609 -11.421875 32.8671875 C-14.04292008 38.07035125 -19.11776926 39.0398163 -24.375 41 C-26.56382817 41.85729373 -28.75134654 42.71793962 -30.9375 43.58203125 C-32.51144531 44.19812256 -32.51144531 44.19812256 -34.1171875 44.82666016 C-38.58411342 46.64475348 -42.79314407 48.82191217 -47.0234375 51.13671875 C-47.67570313 51.42160156 -48.32796875 51.70648438 -49 52 C-49.66 51.67 -50.32 51.34 -51 51 C-44.0064698 46.1653921 -37.43750924 42.08174167 -29.44921875 39.0234375 C-20.86810242 35.15422045 -17.32342046 29.10824888 -13.11914062 21.12011719 C-11.56726205 18.18021458 -9.94584987 15.28116991 -8.31884766 12.38232422 C-7.53938519 10.99013094 -6.76783981 9.59346698 -6.00537109 8.19189453 C-4.29583642 5.08543931 -2.73465798 2.30468031 0 0 Z " fill="#0B0A0E" transform="translate(281,90)"/>
<path d="M0 0 C0.96421875 0.55429688 1.9284375 1.10859375 2.921875 1.6796875 C4.19788361 2.41151597 5.47392712 3.1432836 6.75 3.875 C7.70132812 4.42220703 7.70132812 4.42220703 8.671875 4.98046875 C11.74250368 6.7396831 14.80851875 8.46873374 18 10 C18 9.34 18 8.68 18 8 C18.99 8 19.98 8 21 8 C21.47695313 9.08667969 21.95390625 10.17335937 22.4453125 11.29296875 C25.15992174 16.03338796 28.81687327 16.92743945 33.875 18.3125 C34.66519531 18.55033203 35.45539063 18.78816406 36.26953125 19.03320312 C37.80395323 19.49404034 39.34133667 19.94515871 40.88183594 20.38525391 C43.61496726 21.17847943 46.30790052 22.07810741 49 23 C49 24.32 49 25.64 49 27 C44.88060724 30.60446866 41.19484399 30.34064551 36 30 C35.34 29.67 34.68 29.34 34 29 C34 28.34 34 27.68 34 27 C33.236875 26.855625 32.47375 26.71125 31.6875 26.5625 C29 26 29 26 26 25 C26 24.34 26 23.68 26 23 C25.360625 22.7525 24.72125 22.505 24.0625 22.25 C22 21 22 21 21.25 18.875 C21.1675 18.25625 21.085 17.6375 21 17 C20.34 17 19.68 17 19 17 C18.76539063 16.40058594 18.53078125 15.80117187 18.2890625 15.18359375 C16.68303383 12.46307852 15.11992923 11.59643104 12.375 10.0625 C11.0446875 9.30259766 11.0446875 9.30259766 9.6875 8.52734375 C8.800625 8.02332031 7.91375 7.51929688 7 7 C5.45292016 6.05043017 3.91062171 5.09299011 2.375 4.125 C1.26125 3.42375 0.1475 2.7225 -1 2 C-0.67 1.34 -0.34 0.68 0 0 Z " fill="#08060C" transform="translate(303,145)"/>
<path d="M0 0 C0.97904297 0.01804688 1.95808594 0.03609375 2.96679688 0.0546875 C5.37470771 0.10167113 7.78059335 0.16734306 10.1875 0.25 C9.8575 1.9 9.5275 3.55 9.1875 5.25 C3.2475 5.58 -2.6925 5.91 -8.8125 6.25 C-8.833125 7.879375 -8.85375 9.50875 -8.875 11.1875 C-8.88660156 12.10402344 -8.89820313 13.02054688 -8.91015625 13.96484375 C-9.07199049 16.21593327 -9.07199049 16.21593327 -7.8125 17.25 C-6.47234779 17.40582303 -5.12491097 17.50044142 -3.77734375 17.56640625 C-2.96845703 17.60830078 -2.15957031 17.65019531 -1.32617188 17.69335938 C-0.47603516 17.73267578 0.37410156 17.77199219 1.25 17.8125 C2.10400391 17.85568359 2.95800781 17.89886719 3.83789062 17.94335938 C5.95422037 18.04976702 8.07083813 18.15041731 10.1875 18.25 C9.8575 19.57 9.5275 20.89 9.1875 22.25 C6.12446422 22.33115993 3.06359185 22.39057409 0 22.4375 C-0.86431641 22.46263672 -1.72863281 22.48777344 -2.61914062 22.51367188 C-7.50085222 22.5697835 -10.879822 22.50490183 -14.8125 19.25 C-16.21682107 16.44135786 -16.09602778 14.0061645 -16.1875 10.875 C-16.26097656 9.16183594 -16.26097656 9.16183594 -16.3359375 7.4140625 C-15.8125 4.25 -15.8125 4.25 -13.96484375 1.8515625 C-9.32102336 -0.50775145 -5.12547988 -0.17899594 0 0 Z " fill="#DBDBDC" transform="translate(356.8125,230.75)"/>
<path d="M0 0 C3.20977688 2.68953782 4.77586349 6.17877564 6.5625 9.875 C6.86607422 10.48730469 7.16964844 11.09960938 7.48242188 11.73046875 C9.13915497 15.10168598 10.65920854 18.49126214 12 22 C7.83086967 20.61028989 7.34364217 18.51558555 5.3125 14.6875 C4.68988281 13.53636719 4.06726563 12.38523437 3.42578125 11.19921875 C2 8 2 8 2 4 C-0.88908889 5.44454444 -1.04678323 7.28083399 -2.19140625 10.26953125 C-4.93355072 17.05907693 -8.31743986 23.33193693 -11.9375 29.6875 C-12.53240234 30.75033203 -13.12730469 31.81316406 -13.74023438 32.90820312 C-15.46203957 35.95852687 -17.21765248 38.98470425 -19 42 C-19.50547363 42.86254395 -20.01094727 43.72508789 -20.53173828 44.61376953 C-23.69167466 49.71054254 -26.66426084 52.77387999 -32 55.5 C-32.59039062 55.83257812 -33.18078125 56.16515625 -33.7890625 56.5078125 C-37.49149868 58.51397836 -40.8238185 59.54163862 -45 60 C-42.72255304 57.26034056 -40.06027528 55.97647981 -36.91186523 54.40454102 C-27.31986792 49.40275386 -23.15344614 43.21313288 -18.38964844 33.73291016 C-16.47209965 29.9618207 -14.4467937 26.25144246 -12.42732239 22.53419495 C-9.74724376 17.59842082 -7.10159647 12.64481674 -4.46704102 7.68457031 C-3.04333171 5.07929364 -1.54586094 2.53434913 0 0 Z " fill="#69686D" transform="translate(285,74)"/>
<path d="M0 0 C1.1127832 -0.01836914 1.1127832 -0.01836914 2.24804688 -0.03710938 C4.18763629 -0.04238478 6.1267371 0.06561098 8.0625 0.1875 C10.65585905 2.78085905 10.33976563 4.67497032 10.42578125 8.21484375 C10.0625 10.1875 10.0625 10.1875 8.984375 11.921875 C6.04089661 13.86026321 3.47780565 13.54675437 0 13.5 C-1.24910156 13.49613281 -2.49820312 13.49226562 -3.78515625 13.48828125 C-6.9375 13.1875 -6.9375 13.1875 -8.9375 11.1875 C-9.16796875 8.83984375 -9.16796875 8.83984375 -9.125 6.125 C-9.11855469 5.22652344 -9.11210937 4.32804688 -9.10546875 3.40234375 C-8.72803037 -1.57457634 -3.93129679 0.00339784 0 0 Z " fill="#13171D" transform="translate(320.9375,235.8125)"/>
<path d="M0 0 C1.98 0 3.96 0 6 0 C6 5.61 6 11.22 6 17 C11.94 17 17.88 17 24 17 C24 18.65 24 20.3 24 22 C16.08 22 8.16 22 0 22 C0 14.74 0 7.48 0 0 Z " fill="#929498" transform="translate(280,231)"/>
<path d="M0 0 C1.1127832 -0.01836914 1.1127832 -0.01836914 2.24804688 -0.03710938 C4.18763629 -0.04238478 6.1267371 0.06561098 8.0625 0.1875 C10.0625 2.1875 10.0625 2.1875 10.328125 4.0625 C10.32296875 4.76375 10.3178125 5.465 10.3125 6.1875 C10.31765625 6.88875 10.3228125 7.59 10.328125 8.3125 C10.0625 10.1875 10.0625 10.1875 8.0625 12.1875 C5.33552777 12.35920903 2.72343532 12.4199568 0 12.375 C-0.74572266 12.37435547 -1.49144531 12.37371094 -2.25976562 12.37304688 C-7.79721841 12.32778159 -7.79721841 12.32778159 -8.9375 11.1875 C-9.03573937 9.52320949 -9.06723631 7.85468069 -9.0625 6.1875 C-9.06507813 5.28 -9.06765625 4.3725 -9.0703125 3.4375 C-8.77362265 -1.58877508 -3.94710657 0.0034115 0 0 Z " fill="#13171D" transform="translate(161.9375,235.8125)"/>
<path d="M0 0 C0.33 0 0.66 0 1 0 C1.42928613 10.94679632 1.42928613 10.94679632 -2.27758789 15.60571289 C-5.65410979 18.3389966 -10.27520053 17.46829038 -14.4375 17.4375 C-15.39205078 17.45748047 -16.34660156 17.47746094 -17.33007812 17.49804688 C-24.29350457 17.49317394 -24.29350457 17.49317394 -27.61328125 15.17578125 C-29.33732473 12.47073274 -29.71176943 10.17053624 -30 7 C-28.35 7 -26.7 7 -25 7 C-25 5.35 -25 3.7 -25 2 C-24.67 2 -24.34 2 -24 2 C-23.67 4.97 -23.34 7.94 -23 11 C-20.39472895 11.10792837 -17.79391689 11.18724878 -15.1875 11.25 C-14.08051758 11.30027344 -14.08051758 11.30027344 -12.95117188 11.3515625 C-10.5154344 11.43898094 -10.5154344 11.43898094 -7 11 C-4.93886639 9.14771642 -4.93886639 9.14771642 -4 7 C-2.68 7.33 -1.36 7.66 0 8 C0 5.36 0 2.72 0 0 Z " fill="#A1A2A6" transform="translate(177,236)"/>
<path d="M0 0 C3.63 0.33 7.26 0.66 11 1 C11 2.32 11 3.64 11 5 C11.66 5 12.32 5 13 5 C13.268125 5.804375 13.53625 6.60875 13.8125 7.4375 C14.204375 8.283125 14.59625 9.12875 15 10 C15.99 10.33 16.98 10.66 18 11 C19.39453125 12.55859375 19.39453125 12.55859375 20.8125 14.4375 C23.52915878 17.76013028 25.71598799 19.08199743 30 20 C30 20.33 30 20.66 30 21 C28.45925884 21.08221346 26.91719346 21.13973295 25.375 21.1875 C24.08722656 21.23970703 24.08722656 21.23970703 22.7734375 21.29296875 C14.47846057 20.41673879 9.28985482 13.82427508 4 8 C0 2.98979592 0 2.98979592 0 0 Z " fill="#615E65" transform="translate(304,161)"/>
<path d="M0 0 C3.0625 0.25 3.0625 0.25 6.0625 2.25 C6.49382515 6.30445642 6.36269361 7.79970958 4.0625 11.25 C3.60477937 13.98872955 3.60477937 13.98872955 3.4375 16.9375 C3.36273438 17.93136719 3.28796875 18.92523438 3.2109375 19.94921875 C3.16195313 20.70847656 3.11296875 21.46773437 3.0625 22.25 C-0.2375 21.92 -3.5375 21.59 -6.9375 21.25 C-5.9475 20.26 -4.9575 19.27 -3.9375 18.25 C-3.2775 18.25 -2.6175 18.25 -1.9375 18.25 C-2.26710216 13.23464948 -2.26710216 13.23464948 -4.9375 9.25 C-5.1875 5.75 -5.1875 5.75 -4.9375 2.25 C-2.9375 0.25 -2.9375 0.25 0 0 Z " fill="#EEECEB" transform="translate(284.9375,102.75)"/>
<path d="M0 0 C0.33 0 0.66 0 1 0 C1.62739631 8.9752527 1.62739631 8.9752527 -0.875 13.0625 C-5.11190238 16.92555805 -9.32015789 16.28984741 -14.8125 16.375 C-16.16698242 16.43107422 -16.16698242 16.43107422 -17.54882812 16.48828125 C-22.14627925 16.54908516 -24.31910213 16.49350257 -28.13671875 13.7265625 C-30 11 -30 11 -30 7 C-28.35 7 -26.7 7 -25 7 C-25 5.02 -25 3.04 -25 1 C-24.67 1 -24.34 1 -24 1 C-23.93941406 1.63808594 -23.87882812 2.27617187 -23.81640625 2.93359375 C-23.73261719 3.75988281 -23.64882813 4.58617187 -23.5625 5.4375 C-23.48128906 6.26121094 -23.40007812 7.08492187 -23.31640625 7.93359375 C-23.21069185 9.98662025 -23.21069185 9.98662025 -22 11 C-19.73499695 11.20511024 -17.46095623 11.31412476 -15.1875 11.375 C-13.94355469 11.42398438 -12.69960938 11.47296875 -11.41796875 11.5234375 C-7.82203651 11.32482134 -7.82203651 11.32482134 -5.55078125 8.4765625 C-4.78314453 7.25066406 -4.78314453 7.25066406 -4 6 C-3.67 6.66 -3.34 7.32 -3 8 C-2.01 8 -1.02 8 0 8 C0 5.36 0 2.72 0 0 Z " fill="#9FA1A5" transform="translate(336,237)"/>
<path d="M0 0 C1.98 0 3.96 0 6 0 C6 7.26 6 14.52 6 22 C-1 22 -1 22 -3.43359375 20.25 C-4.09488281 19.5075 -4.75617188 18.765 -5.4375 18 C-6.11683594 17.2575 -6.79617188 16.515 -7.49609375 15.75 C-7.99238281 15.1725 -8.48867188 14.595 -9 14 C-6.51588385 12.75794193 -4.74800896 12.85907646 -2 13 C-1.67 13.33 -1.34 13.66 -1 14 C-0.67 9.38 -0.34 4.76 0 0 Z " fill="#9E9FA3" transform="translate(269,231)"/>
<path d="M0 0 C6.76923077 3.44615385 6.76923077 3.44615385 7.9375 6.25 C7.958125 6.8275 7.97875 7.405 8 8 C8.66 8 9.32 8 10 8 C11.01866229 9.65532623 12.01810813 11.32260138 13 13 C13.66 13.33 14.32 13.66 15 14 C15 14.99 15 15.98 15 17 C15.639375 17.226875 16.27875 17.45375 16.9375 17.6875 C21.13320261 19.48565826 25.03900556 21.73904021 29 24 C27.15625 25.5390625 27.15625 25.5390625 25 27 C21.36515449 26.09128862 18.95117849 24.21338387 16 22 C15.13375 21.690625 14.2675 21.38125 13.375 21.0625 C11 20 11 20 9.6875 17.875 C9.460625 17.25625 9.23375 16.6375 9 16 C8.34 16 7.68 16 7 16 C4.70366176 12.55549263 4.45983515 10.06187717 4 6 C3.34 6 2.68 6 2 6 C2 5.34 2 4.68 2 4 C1.34 3.67 0.68 3.34 0 3 C0 2.01 0 1.02 0 0 Z " fill="#29262F" transform="translate(314,154)"/>
<path d="M0 0 C3.84287605 1.47786868 5.18800384 3.42655674 7.234375 6.9375 C7.80800781 7.91460937 8.38164062 8.89171875 8.97265625 9.8984375 C9.55917969 10.92195312 10.14570313 11.94546875 10.75 13 C11.35199219 14.02351562 11.95398438 15.04703125 12.57421875 16.1015625 C17 23.70868764 17 23.70868764 17 26 C17.53625 26.08636719 18.0725 26.17273438 18.625 26.26171875 C30.0423015 28.3085705 41.03844903 32.28090235 52 36 C52 36.66 52 37.32 52 38 C44.63833002 37.38426377 37.86212628 35.39845753 30.8125 33.25 C29.65041016 32.91484375 28.48832031 32.5796875 27.29101562 32.234375 C15.48116267 28.64863471 11.97098163 22.75955971 6.1875 12.25 C5.59001953 11.18394531 4.99253906 10.11789063 4.37695312 9.01953125 C0 1.16602679 0 1.16602679 0 0 Z " fill="#4B4C52" transform="translate(312,133)"/>
<path d="M0 0 C0.66 0.66 1.32 1.32 2 2 C4.06874034 2.6425235 4.06874034 2.6425235 6 3 C6 3.99 6 4.98 6 6 C6.99 6.66 7.98 7.32 9 8 C7.68 9.32 6.36 10.64 5 12 C5.33 12.66 5.66 13.32 6 14 C5.67 14.66 5.34 15.32 5 16 C2.8203125 16.37890625 2.8203125 16.37890625 0.125 16.5625 C-2.86796839 16.77628346 -5.1328687 17.04428957 -8 18 C-7.83837003 10.72665157 -4.04781684 5.84449794 0 0 Z " fill="#A7A4A9" transform="translate(327,65)"/>
<path d="M0 0 C0.25 5.625 0.25 5.625 -2 9 C-5.05919388 10.01973129 -7.12418025 10.11533602 -10.32421875 10.09765625 C-11.35224609 10.09443359 -12.38027344 10.09121094 -13.43945312 10.08789062 C-14.51130859 10.07951172 -15.58316406 10.07113281 -16.6875 10.0625 C-17.77095703 10.05798828 -18.85441406 10.05347656 -19.97070312 10.04882812 C-22.64719085 10.03703743 -25.32356777 10.02058063 -28 10 C-27.34 8.35 -26.68 6.7 -26 5 C-19.4 5 -12.8 5 -6 5 C-6.33 3.68 -6.66 2.36 -7 1 C-1.125 0 -1.125 0 0 0 Z " fill="#95979B" transform="translate(209,243)"/>
<path d="M0 0 C0.66 0 1.32 0 2 0 C2 2.64 2 5.28 2 8 C2.99 8 3.98 8 5 8 C5 5.36 5 2.72 5 0 C5.99 0.66 6.98 1.32 8 2 C8.51171875 4.8203125 8.51171875 4.8203125 8.6875 8.125 C8.75324219 9.22070312 8.81898438 10.31640625 8.88671875 11.4453125 C8.92410156 12.28835937 8.96148437 13.13140625 9 14 C9.66 13.01 10.32 12.02 11 11 C13.03684712 15.07369424 13.0257259 17.58937864 12 22 C12.99 22.33 13.98 22.66 15 23 C11.37 23.66 7.74 24.32 4 25 C4 20 4 20 6 17 C6.39013716 15.0103005 6.73202649 13.00980131 7 11 C2.545 10.01 2.545 10.01 -2 9 C-3 5 -3 5 -1.6875 2.25 C-1.130625 1.5075 -0.57375 0.765 0 0 Z " fill="#28262D" transform="translate(284,94)"/>
<path d="M0 0 C-0.82564453 0.27650391 -0.82564453 0.27650391 -1.66796875 0.55859375 C-10.32647254 3.57900205 -18.69751575 7.23820807 -27.109375 10.87890625 C-27.94452637 11.23936035 -28.77967773 11.59981445 -29.64013672 11.97119141 C-31.13638352 12.62349681 -32.62824253 13.28603974 -34.11376953 13.96240234 C-38.75256576 16.05209142 -38.75256576 16.05209142 -41.375 15.5 C-45.00288083 14.80897508 -47.43211899 16.04528995 -50.83984375 17.296875 C-53.30709558 18.09995878 -55.42010613 18.24966715 -58 18 C-53.94379535 15.29586357 -49.63250965 13.89869161 -45.0625 12.25 C-43.60034058 11.71983276 -43.60034058 11.71983276 -42.10864258 11.17895508 C-33.2496685 8.00987373 -24.29055667 5.27357477 -15.24755859 2.68505859 C-12.13238414 1.73554963 -9.08379711 0.6113713 -6.03637695 -0.53588867 C-3.68156862 -1.0725738 -2.26780848 -0.75551166 0 0 Z " fill="#A43137" transform="translate(377,99)"/>
<path d="M0 0 C0.66 0 1.32 0 2 0 C2.24234375 0.6290625 2.4846875 1.258125 2.734375 1.90625 C3.23710937 3.19015625 3.23710937 3.19015625 3.75 4.5 C4.28947266 5.88058594 4.28947266 5.88058594 4.83984375 7.2890625 C5.84846782 9.64591471 6.98957153 11.69009374 8.3125 13.875 C10.98114207 19.00297888 10.11633269 24.49695151 9 30 C7.9453125 32.359375 7.9453125 32.359375 7 34 C6.93941406 32.85660156 6.87882812 31.71320313 6.81640625 30.53515625 C6.73201572 29.04425695 6.64736698 27.55337225 6.5625 26.0625 C6.52318359 25.30775391 6.48386719 24.55300781 6.44335938 23.77539062 C6.55961976 20.08055813 6.55961976 20.08055813 5 17 C4.67 19.31 4.34 21.62 4 24 C3.01 24 2.02 24 1 24 C0.66114962 21.47980028 0.32879665 18.95901484 0 16.4375 C-0.09539062 15.73302734 -0.19078125 15.02855469 -0.2890625 14.30273438 C-0.86449175 9.8431577 -1.18565043 5.50782441 -1 1 C-0.67 0.67 -0.34 0.34 0 0 Z " fill="#0A090D" transform="translate(285,78)"/>
<path d="M0 0 C2.54704151 0.22715551 3.70185662 0.6217535 5.66015625 2.28515625 C7.99847301 5.24876106 9.05699865 6.9820212 8.8125 10.8125 C8.544375 11.493125 8.27625 12.17375 8 12.875 C5.20171644 12.48902985 4.1794116 12.07363427 2.25 9.9375 C1 7.875 1 7.875 1 5.875 C0.34 5.875 -0.32 5.875 -1 5.875 C-1.28875 6.65875 -1.5775 7.4425 -1.875 8.25 C-3 10.875 -3 10.875 -5 12.875 C-7.625 13 -7.625 13 -10 12.875 C-9.455757 6.88832703 -6.52375349 0.57961515 0 0 Z " fill="#DBDBDC" transform="translate(129,230.125)"/>
<path d="M0 0 C0.33 0 0.66 0 1 0 C1.22786458 2.05078125 1.45572917 4.1015625 1.68359375 6.15234375 C1.81886614 8.01140229 1.81886614 8.01140229 3 9 C4.34015221 9.15582303 5.68758903 9.25044142 7.03515625 9.31640625 C7.84404297 9.35830078 8.65292969 9.40019531 9.48632812 9.44335938 C10.33646484 9.48267578 11.18660156 9.52199219 12.0625 9.5625 C12.91650391 9.60568359 13.77050781 9.64886719 14.65039062 9.69335938 C16.76672037 9.79976702 18.88333813 9.90041731 21 10 C20.67 11.32 20.34 12.64 20 14 C16.93696422 14.08115993 13.87609185 14.14057409 10.8125 14.1875 C9.94818359 14.21263672 9.08386719 14.23777344 8.19335938 14.26367188 C-0.2120416 14.36028568 -0.2120416 14.36028568 -4 11 C-4.8125 7.3125 -4.8125 7.3125 -5 4 C-3.35 4 -1.7 4 0 4 C0 2.68 0 1.36 0 0 Z " fill="#9A9CA0" transform="translate(346,239)"/>
<path d="M0 0 C0.33 0.66 0.66 1.32 1 2 C-0.19995117 4.53442383 -0.19995117 4.53442383 -2.04296875 7.70703125 C-2.36783768 8.26944016 -2.6927066 8.83184906 -3.02742004 9.41130066 C-3.71896926 10.60462829 -4.41445999 11.79567897 -5.11352539 12.98461914 C-6.17418837 14.7898439 -7.22184524 16.60211025 -8.26757812 18.41601562 C-11.24556977 23.53835251 -14.19077755 28.43661146 -18 33 C-22 26.25 -22 26.25 -22 24 C-18.70450534 22.27735506 -15.66881155 20.70554068 -12 20 C-11.67 17.69 -11.34 15.38 -11 13 C-10.01 13 -9.02 13 -8 13 C-7.67 11.35 -7.34 9.7 -7 8 C-6.34 8 -5.68 8 -5 8 C-4.9175 7.05125 -4.835 6.1025 -4.75 5.125 C-4 2 -4 2 -1.9375 0.625 C-1.298125 0.41875 -0.65875 0.2125 0 0 Z " fill="#605F64" transform="translate(275,49)"/>
<path d="M0 0 C0 4.04392968 -1.48091251 5.00131618 -4.1875 7.9375 C-4.96480469 8.79214844 -5.74210937 9.64679688 -6.54296875 10.52734375 C-10.97903824 14.99162354 -15.0280748 18.81668038 -21.5390625 19.1171875 C-24.02971734 19.12420343 -26.51100338 19.08699406 -29 19 C-28.43667969 18.73703125 -27.87335938 18.4740625 -27.29296875 18.203125 C-24.80078528 16.89547166 -22.60170989 15.38672978 -20.3125 13.75 C-14.00353529 9.28347631 -7.64844324 4.94751317 -1 1 C-0.67 0.67 -0.34 0.34 0 0 Z " fill="#38353C" transform="translate(267,163)"/>
<path d="M0 0 C2.475 0.495 2.475 0.495 5 1 C5 2.32 5 3.64 5 5 C11.27 5 17.54 5 24 5 C23.67 6.32 23.34 7.64 23 9 C15.41 9 7.82 9 0 9 C0 6.03 0 3.06 0 0 Z " fill="#A0A3A6" transform="translate(404,244)"/>
<path d="M0 0 C2.475 0.495 2.475 0.495 5 1 C4.2575 1.721875 3.515 2.44375 2.75 3.1875 C0.30709485 5.68592573 -1.8681047 8.23643202 -4 11 C-3.67 11.66 -3.34 12.32 -3 13 C-8.28 16.3 -13.56 19.6 -19 23 C-19 19.42188369 -18.13534858 18.73324619 -16 16 C-15.67 15.01 -15.34 14.02 -15 13 C-11.46503667 10.99149811 -7.79391905 9.45061611 -4 8 C-4 7.34 -4 6.68 -4 6 C-3 5 -2 4 -1 3 C-0.67 2.01 -0.34 1.02 0 0 Z " fill="#8B080A" transform="translate(273,138)"/>
<path d="M0 0 C0 3 0 3 -1.5 4.6875 C-1.995 5.120625 -2.49 5.55375 -3 6 C-2.505 6.99 -2.505 6.99 -2 8 C-2.56589844 8.33773437 -3.13179688 8.67546875 -3.71484375 9.0234375 C-4.44832031 9.46945313 -5.18179688 9.91546875 -5.9375 10.375 C-6.66839844 10.81585938 -7.39929688 11.25671875 -8.15234375 11.7109375 C-10.13772272 12.8773984 -10.13772272 12.8773984 -11 15 C-12.82592773 15.68603516 -12.82592773 15.68603516 -15.18359375 16.2890625 C-16.02857422 16.50820312 -16.87355469 16.72734375 -17.74414062 16.953125 C-18.63294922 17.17484375 -19.52175781 17.3965625 -20.4375 17.625 C-21.76491211 17.96917969 -21.76491211 17.96917969 -23.11914062 18.3203125 C-29.68291946 20 -29.68291946 20 -32 20 C-32 19.34 -32 18.68 -32 18 C-34.64 18 -37.28 18 -40 18 C-40 17.67 -40 17.34 -40 17 C-38.40671875 16.94392578 -38.40671875 16.94392578 -36.78125 16.88671875 C-24.00085351 16.54072151 -24.00085351 16.54072151 -13.0625 10.4375 C-10.99726445 8.19148855 -10.99726445 8.19148855 -10 6 C-8.22265625 5 -8.22265625 5 -6.0625 4 C-3.51384512 2.81586997 -2.01242841 2.01242841 0 0 Z " fill="#1A1B21" transform="translate(355,90)"/>
<path d="M0 0 C4.95 0 9.9 0 15 0 C15.33 1.32 15.66 2.64 16 4 C12.59568053 6.26954631 10.83475798 6.36549949 6.8125 6.625 C5.72582031 6.69976562 4.63914062 6.77453125 3.51953125 6.8515625 C2.27236328 6.92503906 2.27236328 6.92503906 1 7 C1 10.3 1 13.6 1 17 C0.67 17 0.34 17 0 17 C0 11.39 0 5.78 0 0 Z " fill="#1F2329" transform="translate(439,236)"/>
<path d="M0 0 C-3.17583779 1.629638 -6.40899996 3.07617471 -9.68359375 4.49609375 C-11.32231445 5.21055664 -11.32231445 5.21055664 -12.99414062 5.93945312 C-15.28500075 6.93610073 -17.57666561 7.9309007 -19.86914062 8.92382812 C-20.96291016 9.40142578 -22.05667969 9.87902344 -23.18359375 10.37109375 C-24.17931396 10.80349365 -25.17503418 11.23589355 -26.20092773 11.68139648 C-29.04688269 12.94660347 -29.04688269 12.94660347 -31.67602539 14.72680664 C-32.82639282 15.35703735 -32.82639282 15.35703735 -34 16 C-34.99 15.67 -35.98 15.34 -37 15 C-30.36715141 8.02700533 -21.8229631 5.30943358 -13 2 C-12.02160156 1.62230469 -11.04320312 1.24460937 -10.03515625 0.85546875 C-6.25020324 -0.52374042 -3.84698772 -1.22288351 0 0 Z " fill="#120609" transform="translate(381,99)"/>
<path d="M0 0 C0.66 0 1.32 0 2 0 C3.25541557 3.76624671 2.37061958 5.37188934 1 9 C-0.32 9 -1.64 9 -3 9 C-3.33 9.99 -3.66 10.98 -4 12 C-2.35 12 -0.7 12 1 12 C0.0625 13.9375 0.0625 13.9375 -2 16 C-4.9858081 16.66174825 -7.94861869 16.87205948 -11 17 C-8.64410392 10.48664025 -4.91741894 4.91741894 0 0 Z " fill="#B3B1B5" transform="translate(338,51)"/>
<path d="M0 0 C3.80666984 1.44390925 5.26602582 3.34952803 7 7 C6.67 7.66 6.34 8.32 6 9 C5.34 8.67 4.68 8.34 4 8 C4 8.66 4 9.32 4 10 C0.7 10 -2.6 10 -6 10 C-6.33 10.66 -6.66 11.32 -7 12 C-7.8125 10.3125 -7.8125 10.3125 -8 8 C-5.6875 5.25 -5.6875 5.25 -3 3 C-2.34 3 -1.68 3 -1 3 C-0.67 2.01 -0.34 1.02 0 0 Z " fill="#7F7D83" transform="translate(356,48)"/>
<path d="M0 0 C0.495 0.99 0.495 0.99 1 2 C-3.62343584 5.15746838 -8.08383769 6.63828357 -13.5 7.9375 C-19.3706647 9.35603554 -23.30065817 11.22009462 -28 15 C-30.9375 15.8125 -30.9375 15.8125 -33 16 C-33.33 15.01 -33.66 14.02 -34 13 C-33.0925 12.731875 -32.185 12.46375 -31.25 12.1875 C-28.09603805 11.23954838 -28.09603805 11.23954838 -26.28125 9.58203125 C-23.18024718 7.43150703 -19.83415751 6.53475157 -16.25 5.5 C-14.81719802 5.07070998 -13.38489908 4.6397372 -11.953125 4.20703125 C-11.27056641 4.00158691 -10.58800781 3.79614258 -9.88476562 3.58447266 C-6.5264092 2.54303415 -3.26781713 1.29351095 0 0 Z " fill="#2A2831" transform="translate(370,108)"/>
<path d="M0 0 C7.92 0.33 15.84 0.66 24 1 C24 1.66 24 2.32 24 3 C18.70715781 4.76890532 14.24254562 5.23239482 8.6875 5.0625 C3.69732575 4.72016548 3.69732575 4.72016548 -1 6 C-0.67 4.02 -0.34 2.04 0 0 Z " fill="#09090C" transform="translate(299,107)"/>
<path d="M0 0 C5.25781354 3.40005275 10.33397013 6.8125373 15 11 C15 11.33 15 11.66 15 12 C9.18935169 12.50970599 6.2338687 12.11273918 1.67578125 8.4453125 C1.12277344 7.96835938 0.56976563 7.49140625 0 7 C-0.58394531 6.52304688 -1.16789062 6.04609375 -1.76953125 5.5546875 C-3.19402604 4.38706882 -4.5991321 3.19586284 -6 2 C-3.50907189 0.75453595 -2.58919267 1.2232422 0 2 C0 1.34 0 0.68 0 0 Z " fill="#9A9BA0" transform="translate(385,241)"/>
<path d="M0 0 C1.4036827 4.21104811 -0.14075051 6.07491775 -2 10 C-2.391875 10.66 -2.78375 11.32 -3.1875 12 C-5.22357606 17.01187952 -3.84538571 22.82201251 -3 28 C-6.811351 24.91462062 -8.74125663 20.41493809 -9.2578125 15.59375 C-8.940145 12.39782243 -7.89050818 10.58489623 -6.1875 7.875 C-5.66542969 7.02679688 -5.14335937 6.17859375 -4.60546875 5.3046875 C-3.20038321 3.28765473 -1.80368714 1.65744224 0 0 Z " fill="#0A090D" transform="translate(281,90)"/>
<path d="M0 0 C-3.70060202 3.92488093 -7.4906925 7.02215543 -12 10 C-12.66 10 -13.32 10 -14 10 C-14 10.66 -14 11.32 -14 12 C-16.97 11.505 -16.97 11.505 -20 11 C-15.24757098 3.97467014 -8.6474332 -1.10392764 0 0 Z " fill="#D8D8D9" transform="translate(399,231)"/>
<path d="M0 0 C3.51098025 4.01254885 5.76537994 8.20983041 8 13 C4.6875 13.3125 4.6875 13.3125 1 13 C-0.95578117 10.60259082 -2 9.12413392 -2 6 C-4.31 6 -6.62 6 -9 6 C-9 5.34 -9 4.68 -9 4 C-7.68 4 -6.36 4 -5 4 C-4.67 3.34 -4.34 2.68 -4 2 C-3.01 2 -2.02 2 -1 2 C-0.67 1.34 -0.34 0.68 0 0 Z " fill="#9A9BA0" transform="translate(138,240)"/>
<path d="M0 0 C-11.63967209 4.63406149 -23.84232687 8.01387444 -36 11 C-36 10.34 -36 9.68 -36 9 C-37.32 8.67 -38.64 8.34 -40 8 C-39.11030518 7.80422363 -39.11030518 7.80422363 -38.20263672 7.60449219 C-35.42575411 6.99075115 -32.65016695 6.3714538 -29.875 5.75 C-28.87484863 5.52618652 -27.87469727 5.30237305 -26.84423828 5.07177734 C-20.01822146 3.5205598 -13.34803693 1.7373908 -6.6796875 -0.3984375 C-3.96769395 -1.00725238 -2.57539748 -0.94883065 0 0 Z " fill="#DCC1C3" transform="translate(373,99)"/>
<path d="M0 0 C1.25390625 1.515625 1.25390625 1.515625 2 4 C0.76869831 6.78171825 -0.48896516 9.17377198 -2.0625 11.75 C-2.69079712 12.81927734 -2.69079712 12.81927734 -3.33178711 13.91015625 C-4.53721766 15.9511561 -5.76355312 17.97767587 -7 20 C-7.5671875 20.93328125 -8.134375 21.8665625 -8.71875 22.828125 C-9.79295014 24.5643322 -10.89235472 26.28493635 -12 28 C-13.32 26.35 -14.64 24.7 -16 23 C-14.35 22.67 -12.7 22.34 -11 22 C-10.01 19.03 -9.02 16.06 -8 13 C-7.34 13 -6.68 13 -6 13 C-6 12.01 -6 11.02 -6 10 C-5.34 10 -4.68 10 -4 10 C-3.67 8.02 -3.34 6.04 -3 4 C-2.34 4 -1.68 4 -1 4 C-0.67 2.68 -0.34 1.36 0 0 Z " fill="#4D4C52" transform="translate(253,83)"/>
<path d="M0 0 C1.485 0.99 1.485 0.99 3 2 C3 2.66 3 3.32 3 4 C4.32 4.33 5.64 4.66 7 5 C7 6.32 7 7.64 7 9 C7.66 9.33 8.32 9.66 9 10 C9 10.99 9 11.98 9 13 C11.64 12.67 14.28 12.34 17 12 C15.94124926 15.40312738 14.99097846 18.01353231 13 21 C12.34 21 11.68 21 11 21 C9.76318359 19.28759766 9.76318359 19.28759766 8.3984375 16.9140625 C7.66367187 15.64175781 7.66367187 15.64175781 6.9140625 14.34375 C6.40617187 13.4465625 5.89828125 12.549375 5.375 11.625 C4.859375 10.73554687 4.34375 9.84609375 3.8125 8.9296875 C0 2.27294147 0 2.27294147 0 0 Z " fill="#828085" transform="translate(302,60)"/>
<path d="M0 0 C0.928125 0.20625 1.85625 0.4125 2.8125 0.625 C2.8125 1.285 2.8125 1.945 2.8125 2.625 C3.74835938 2.74681641 3.74835938 2.74681641 4.703125 2.87109375 C6.8125 3.625 6.8125 3.625 7.859375 5.47265625 C8.20742188 6.56900391 8.20742188 6.56900391 8.5625 7.6875 C8.80484375 8.42097656 9.0471875 9.15445313 9.296875 9.91015625 C9.46703125 10.47605469 9.6371875 11.04195312 9.8125 11.625 C6.16774815 10.26149571 2.90005513 8.623536 -0.4375 6.625 C-1.74460937 5.8515625 -1.74460937 5.8515625 -3.078125 5.0625 C-5.1875 3.625 -5.1875 3.625 -6.1875 1.625 C-3.1875 -0.375 -3.1875 -0.375 0 0 Z " fill="#1B1A21" transform="translate(309.1875,142.375)"/>
<path d="M0 0 C1.875 0.3125 1.875 0.3125 4 1 C4.66 1.99 5.32 2.98 6 4 C5.2575 4.721875 4.515 5.44375 3.75 6.1875 C0.98130548 8.88695198 0.98130548 8.88695198 -1.0625 11.8125 C-1.701875 12.534375 -2.34125 13.25625 -3 14 C-4.32 14 -5.64 14 -7 14 C-7.33 12.68 -7.66 11.36 -8 10 C-7.50628906 9.61328125 -7.01257813 9.2265625 -6.50390625 8.828125 C-5.86324219 8.30734375 -5.22257812 7.7865625 -4.5625 7.25 C-3.92441406 6.73953125 -3.28632813 6.2290625 -2.62890625 5.703125 C-0.81189446 3.80332371 -0.39576803 2.56413092 0 0 Z " fill="#959399" transform="translate(351,44)"/>
<path d="M0 0 C6.76923077 3.44615385 6.76923077 3.44615385 7.9375 6.25 C7.958125 6.8275 7.97875 7.405 8 8 C8.66 8 9.32 8 10 8 C11.01866229 9.65532623 12.01810813 11.32260138 13 13 C13.66 13.33 14.32 13.66 15 14 C15 14.99 15 15.98 15 17 C16.65 17.66 18.3 18.32 20 19 C17 20 17 20 14.5 19.25 C12.10683792 18.05341896 10.65094947 17.08540985 9 15 C9 14.34 9 13.68 9 13 C8.34 13 7.68 13 7 13 C6.67 11.35 6.34 9.7 6 8 C5.34 8 4.68 8 4 8 C4 7.34 4 6.68 4 6 C3.34 6 2.68 6 2 6 C2 5.34 2 4.68 2 4 C1.34 3.67 0.68 3.34 0 3 C0 2.01 0 1.02 0 0 Z " fill="#232029" transform="translate(314,154)"/>
<path d="M0 0 C0.33 0 0.66 0 1 0 C1 3.96 1 7.92 1 12 C2.32 12 3.64 12 5 12 C5 10.35 5 8.7 5 7 C5.66 7.33 6.32 7.66 7 8 C6.67 12.62 6.34 17.24 6 22 C4.02 22 2.04 22 0 22 C0 14.74 0 7.48 0 0 Z " fill="#9FA0A3" transform="translate(247,231)"/>
<path d="M0 0 C0 0.99 0 1.98 0 3 C-2.17008479 5.17008479 -4.49115428 6.4496101 -7.15234375 7.94140625 C-10.70192124 9.97509652 -14.04035021 12.30497125 -17.3515625 14.703125 C-22.1072616 18.1226307 -26.49805784 20.96667355 -32 23 C-32.33 22.34 -32.66 21.68 -33 21 C-32.32453125 20.68546875 -31.6490625 20.3709375 -30.953125 20.046875 C-30.06109375 19.61890625 -29.1690625 19.1909375 -28.25 18.75 C-27.36828125 18.33234375 -26.4865625 17.9146875 -25.578125 17.484375 C-22.95243975 16.1213548 -22.95243975 16.1213548 -21.05078125 14.05078125 C-18.58078286 11.58078286 -15.98883136 10.12764265 -12.9375 8.4375 C-9.51236634 6.53652965 -6.66834875 4.86600422 -4 2 C-1.8125 0.8125 -1.8125 0.8125 0 0 Z " fill="#1E1C24" transform="translate(270,159)"/>
<path d="M0 0 C0.66 0.33 1.32 0.66 2 1 C1.67 1.66 1.34 2.32 1 3 C1.99 3.33 2.98 3.66 4 4 C0.54574482 5.1996042 -2.91396865 6.38260295 -6.375 7.5625 C-7.35984375 7.90474609 -8.3446875 8.24699219 -9.359375 8.59960938 C-10.30039062 8.91865234 -11.24140625 9.23769531 -12.2109375 9.56640625 C-13.08024902 9.86490479 -13.94956055 10.16340332 -14.84521484 10.47094727 C-17 11 -17 11 -19 10 C-12.99994659 6.03770058 -6.80679683 2.40644332 0 0 Z M-21 11 C-20.34 11.33 -19.68 11.66 -19 12 C-19.99 12.99 -20.98 13.98 -22 15 C-22.66 14.67 -23.32 14.34 -24 14 C-23.01 13.01 -22.02 12.02 -21 11 Z " fill="#1A1921" transform="translate(363,106)"/>
<path d="M0 0 C0.33 0 0.66 0 1 0 C1 3.96 1 7.92 1 12 C2.65 12 4.3 12 6 12 C6 15.3 6 18.6 6 22 C4.02 22 2.04 22 0 22 C0 14.74 0 7.48 0 0 Z " fill="#919398" transform="translate(433,231)"/>
<path d="M0 0 C2.05078125 0.03255208 4.1015625 0.06510417 6.15234375 0.09765625 C4.50234375 1.74765625 2.85234375 3.39765625 1.15234375 5.09765625 C0.49234375 4.76765625 -0.16765625 4.43765625 -0.84765625 4.09765625 C-2.22328479 5.38730801 -3.55532018 6.72454918 -4.84765625 8.09765625 C-4.84765625 8.75765625 -4.84765625 9.41765625 -4.84765625 10.09765625 C-2.20765625 10.42765625 0.43234375 10.75765625 3.15234375 11.09765625 C3.15234375 11.42765625 3.15234375 11.75765625 3.15234375 12.09765625 C0.51234375 12.09765625 -2.12765625 12.09765625 -4.84765625 12.09765625 C-5.17765625 12.75765625 -5.50765625 13.41765625 -5.84765625 14.09765625 C-9.0703125 8.921875 -9.0703125 8.921875 -9.84765625 7.09765625 C-8.84765625 4.09765625 -8.84765625 4.09765625 -5.84765625 2.47265625 C-4.85765625 2.01890625 -3.86765625 1.56515625 -2.84765625 1.09765625 C-1.84765625 0.09765625 -1.84765625 0.09765625 0 0 Z " fill="#424048" transform="translate(347.84765625,118.90234375)"/>
<path d="M0 0 C2.475 0.99 2.475 0.99 5 2 C5 2.99 5 3.98 5 5 C5.99 5.33 6.98 5.66 8 6 C8 6.66 8 7.32 8 8 C8.66 8 9.32 8 10 8 C10 8.66 10 9.32 10 10 C10.99 10 11.98 10 13 10 C13 10.66 13 11.32 13 12 C14.98 12.66 16.96 13.32 19 14 C19 14.33 19 14.66 19 15 C11.48354551 14.8657776 8.18358662 12.25239529 3 7 C2.175 6.195625 1.35 5.39125 0.5 4.5625 C0.005 4.046875 -0.49 3.53125 -1 3 C-0.67 2.01 -0.34 1.02 0 0 Z " fill="#7D7A80" transform="translate(310,167)"/>
<path d="M0 0 C1.92759992 1.67617384 2.90534623 2.59772148 3.5 5.125 C3.665 5.74375 3.83 6.3625 4 7 C4.99 7.33 5.98 7.66 7 8 C5.58603098 8.50757862 4.16868271 9.00574925 2.75 9.5 C1.96109375 9.7784375 1.1721875 10.056875 0.359375 10.34375 C-2 11 -2 11 -6 11 C-4.88059018 6.14922412 -3.8665284 3.222107 0 0 Z " fill="#28262D" transform="translate(274,114)"/>
<path d="M0 0 C1.65 0 3.3 0 5 0 C5 4.29 5 8.58 5 13 C3.35 13.33 1.7 13.66 0 14 C0 9.38 0 4.76 0 0 Z " fill="#E7E8E8" transform="translate(281,231)"/>
<path d="M0 0 C1.65 0 3.3 0 5 0 C5 4.62 5 9.24 5 14 C3.35 13.67 1.7 13.34 0 13 C0 8.71 0 4.42 0 0 Z " fill="#E4E4E5" transform="translate(214,231)"/>
<path d="M0 0 C1.125 1.625 1.125 1.625 2 4 C1.125 7.25 1.125 7.25 0 10 C-0.66 10 -1.32 10 -2 10 C-2.226875 10.556875 -2.45375 11.11375 -2.6875 11.6875 C-4.35896766 14.63246684 -6.55276352 16.68156544 -9 19 C-9.33 18.34 -9.66 17.68 -10 17 C-9.34 17 -8.68 17 -8 17 C-7.34 15.35 -6.68 13.7 -6 12 C-5.34 12 -4.68 12 -4 12 C-4.33 11.01 -4.66 10.02 -5 9 C-5.66 8.67 -6.32 8.34 -7 8 C-6.67 6.02 -6.34 4.04 -6 2 C-5.34 2.66 -4.68 3.32 -4 4 C-2.68 2.68 -1.36 1.36 0 0 Z " fill="#5C5A61" transform="translate(234,109)"/>
<path d="M0 0 C7.8316181 -0.2700558 15.27279225 0.76892281 23 2 C23 2.33 23 2.66 23 3 C16.73 3 10.46 3 4 3 C4.9887472 7.94373598 6.18231255 9.98692999 9 14 C9.69429379 15.3191582 10.37530495 16.64649406 11 18 C5.28188736 13.71141552 1.82407238 9.7769984 0.25 2.5625 C0.1675 1.716875 0.085 0.87125 0 0 Z " fill="#838085" transform="translate(195,132)"/>
<path d="M0 0 C1.77518 1.08483222 3.5189904 2.2209936 5.25 3.375 C5.25 4.035 5.25 4.695 5.25 5.375 C2.32831111 6.3488963 0.23970526 6.57105823 -2.8125 6.625 C-4.12927734 6.66367188 -4.12927734 6.66367188 -5.47265625 6.703125 C-6.22417969 6.59484375 -6.97570312 6.4865625 -7.75 6.375 C-8.41 5.385 -9.07 4.395 -9.75 3.375 C-3.49576271 -0.79449153 -3.49576271 -0.79449153 0 0 Z " fill="#38363D" transform="translate(307.75,149.625)"/>
<path d="M0 0 C2.41677686 3.86684298 2.78648606 7.51620723 3 12 C1.625 13.875 1.625 13.875 0 15 C-0.33 15.66 -0.66 16.32 -1 17 C-1.66 17 -2.32 17 -3 17 C-3.12375 17.639375 -3.2475 18.27875 -3.375 18.9375 C-3.58125 19.618125 -3.7875 20.29875 -4 21 C-4.66 21.33 -5.32 21.66 -6 22 C-4.66666667 18 -3.33333333 14 -2 10 C-2.99 10.495 -2.99 10.495 -4 11 C-2.7874262 7.27566618 -1.49140021 3.62197194 0 0 Z " fill="#1E1C23" transform="translate(283,82)"/>
<path d="M0 0 C1.32 0.33 2.64 0.66 4 1 C3.12359863 1.80872559 3.12359863 1.80872559 2.22949219 2.63378906 C-0.20225313 5.21465586 -1.86665568 7.80917684 -3.671875 10.859375 C-4.33574219 11.97441406 -4.99960938 13.08945313 -5.68359375 14.23828125 C-6.37252575 15.40877771 -7.06132621 16.5793516 -7.75 17.75 C-8.45388025 18.93652248 -9.15830206 20.12272388 -9.86328125 21.30859375 C-11.58087201 24.20261653 -13.29287683 27.09979446 -15 30 C-16 27 -16 27 -14.86010742 24.50390625 C-14.28107666 23.53324219 -13.7020459 22.56257813 -13.10546875 21.5625 C-12.47962891 20.50289062 -11.85378906 19.44328125 -11.20898438 18.3515625 C-10.54189453 17.24554688 -9.87480469 16.13953125 -9.1875 15 C-8.53201172 13.89398438 -7.87652344 12.78796875 -7.20117188 11.6484375 C-4.86512215 7.7175616 -2.53670943 3.80506414 0 0 Z " fill="#D5D5D6" transform="translate(219,147)"/>
<path d="M0 0 C6.72413793 -0.84051724 6.72413793 -0.84051724 10.3125 1.5234375 C12.31525149 3.27584506 14.21785117 5.02352111 16 7 C16 7.33 16 7.66 16 8 C12.01986149 8.59278659 10.01502769 8.62636203 6.53125 6.4765625 C4.26902448 4.72262183 2.08007043 2.96686932 0 1 C0 0.67 0 0.34 0 0 Z " fill="#909296" transform="translate(446,245)"/>
<path d="M0 0 C1.65 0 3.3 0 5 0 C5 3.63 5 7.26 5 11 C3.35 11.33 1.7 11.66 0 12 C0 8.04 0 4.08 0 0 Z " fill="#E0DFE0" transform="translate(270,231)"/>
<path d="M0 0 C0.33 0.66 0.66 1.32 1 2 C-0.33833516 4.6085692 -1.72522299 7.06677836 -3.25 9.5625 C-3.65863281 10.26052734 -4.06726563 10.95855469 -4.48828125 11.67773438 C-4.88917969 12.34224609 -5.29007812 13.00675781 -5.703125 13.69140625 C-6.07083008 14.30185791 -6.43853516 14.91230957 -6.81738281 15.54125977 C-8 17 -8 17 -11 18 C-11.33 17.01 -11.66 16.02 -12 15 C-11.67 14.34 -11.34 13.68 -11 13 C-10.01 13 -9.02 13 -8 13 C-7.67 11.35 -7.34 9.7 -7 8 C-6.34 8 -5.68 8 -5 8 C-4.9175 7.05125 -4.835 6.1025 -4.75 5.125 C-4 2 -4 2 -1.9375 0.625 C-1.298125 0.41875 -0.65875 0.2125 0 0 Z " fill="#716F73" transform="translate(275,49)"/>
<path d="M0 0 C0.66 0.33 1.32 0.66 2 1 C1.38511719 1.39832031 0.77023438 1.79664063 0.13671875 2.20703125 C-0.67152344 2.73683594 -1.47976562 3.26664063 -2.3125 3.8125 C-3.11300781 4.33457031 -3.91351563 4.85664063 -4.73828125 5.39453125 C-6.73226075 6.80994675 -8.30669232 8.25332159 -10 10 C-14.44444444 13 -14.44444444 13 -18 13 C-16.51330574 8.29213483 -16.51330574 8.29213483 -14.3046875 7.03515625 C-13.54414063 6.69355469 -12.78359375 6.35195312 -12 6 C-11.02804688 5.49082031 -10.05609375 4.98164063 -9.0546875 4.45703125 C-8.00539062 3.91433594 -6.95609375 3.37164062 -5.875 2.8125 C-4.82054687 2.26207031 -3.76609375 1.71164063 -2.6796875 1.14453125 C-1.79539063 0.76683594 -0.91109375 0.38914063 0 0 Z " fill="#87898C" transform="translate(238,134)"/>
<path d="M0 0 C0.66 0.33 1.32 0.66 2 1 C1.21625 1.2475 0.4325 1.495 -0.375 1.75 C-3.11282552 2.71804024 -3.11282552 2.71804024 -3.9375 4.9375 C-5.51553888 8.00075193 -7.93316479 8.5892558 -11 10 C-11.66 10.53625 -12.32 11.0725 -13 11.625 C-15.5917638 13.40683761 -17.91037631 13.6489064 -21 14 C-18.18729491 10.79578284 -14.63103903 8.69499683 -11.0625 6.4375 C-10.44181641 6.03853516 -9.82113281 5.63957031 -9.18164062 5.22851562 C-2.5572252 1.00271707 -2.5572252 1.00271707 0 0 Z " fill="#8D8A90" transform="translate(366,89)"/>
<path d="M0 0 C4.83540096 2.61111652 8.87103901 5.37457083 13 9 C12.0409375 9.2165625 12.0409375 9.2165625 11.0625 9.4375 C9.02454854 9.81007181 9.02454854 9.81007181 8 11 C6.00041636 11.04080783 3.99954746 11.04254356 2 11 C2.33 10.01 2.66 9.02 3 8 C3.34626591 4.99969942 3.34626591 4.99969942 1.5 3.4375 C1.005 2.963125 0.51 2.48875 0 2 C0 1.34 0 0.68 0 0 Z " fill="#6C6870" transform="translate(211,93)"/>
<path d="M0 0 C0.66 0.33 1.32 0.66 2 1 C-1.28015922 7.72432639 -7.33539084 10.95915063 -14 14 C-14.66 13.67 -15.32 13.34 -16 13 C-10.87008301 8.31211667 -5.74728311 3.91304382 0 0 Z " fill="#891517" transform="translate(211,177)"/>
<path d="M0 0 C0.66 0 1.32 0 2 0 C4.04169485 2.90548882 5 4.40142046 5 8 C3.3603125 8.2165625 3.3603125 8.2165625 1.6875 8.4375 C-1.93122987 8.88288104 -1.93122987 8.88288104 -5 10 C-3.66749209 6.4124787 -2.169283 3.1635377 0 0 Z " fill="#25282E" transform="translate(128,236)"/>
<path d="M0 0 C1.32 0 2.64 0 4 0 C4 3.96 4 7.92 4 12 C2.68 12 1.36 12 0 12 C0 8.04 0 4.08 0 0 Z " fill="#E2E2E3" transform="translate(237,231)"/>
<path d="M0 0 C0.33 0.66 0.66 1.32 1 2 C7.27 2 13.54 2 20 2 C20 2.66 20 3.32 20 4 C18.96359375 4.06058594 17.9271875 4.12117187 16.859375 4.18359375 C15.48957127 4.26803371 14.11978025 4.35267997 12.75 4.4375 C11.72712891 4.49647461 11.72712891 4.49647461 10.68359375 4.55664062 C7.35551959 4.76666472 4.19744598 5.01934002 1 6 C0.67 4.02 0.34 2.04 0 0 Z " fill="#BEBFC2" transform="translate(404,240)"/>
<path d="M0 0 C0.8971875 0.5259375 0.8971875 0.5259375 1.8125 1.0625 C-1.64186433 4.65503891 -5.38114503 7.85489749 -9.1875 11.0625 C-9.8475 10.7325 -10.5075 10.4025 -11.1875 10.0625 C-10.26102464 8.41043553 -9.32093426 6.7660003 -8.375 5.125 C-7.85292969 4.20847656 -7.33085937 3.29195312 -6.79296875 2.34765625 C-4.74150921 -0.57230441 -3.39759373 -1.4561116 0 0 Z " fill="#D0BBBD" transform="translate(204.1875,179.9375)"/>
<path d="M0 0 C0.33 0.99 0.66 1.98 1 3 C-10.13441955 9.92260692 -10.13441955 9.92260692 -16 12 C-16.66 11.67 -17.32 11.34 -18 11 C-12.06 7.37 -6.12 3.74 0 0 Z " fill="#77787D" transform="translate(258,122)"/>
<path d="M0 0 C3 4 3 4 3 6 C3.66 6 4.32 6 5 6 C5 6.66 5 7.32 5 8 C3.35 7.34 1.7 6.68 0 6 C0 5.34 0 4.68 0 4 C-5.94 4.495 -5.94 4.495 -12 5 C-12.33 4.01 -12.66 3.02 -13 2 C-8.71 1.34 -4.42 0.68 0 0 Z " fill="#3F3D45" transform="translate(313,154)"/>
<path d="M0 0 C1.485 0.99 1.485 0.99 3 2 C5.51584891 2.24150773 5.51584891 2.24150773 8.1875 2.125 C9.53908203 2.09792969 9.53908203 2.09792969 10.91796875 2.0703125 C11.94857422 2.03550781 11.94857422 2.03550781 13 2 C12.67 2.99 12.34 3.98 12 5 C11.31292969 5.06058594 10.62585938 5.12117188 9.91796875 5.18359375 C8.56638672 5.30927734 8.56638672 5.30927734 7.1875 5.4375 C5.84751953 5.55931641 5.84751953 5.55931641 4.48046875 5.68359375 C1.87256441 5.93489767 1.87256441 5.93489767 -1 7 C-0.67 4.69 -0.34 2.38 0 0 Z " fill="#969399" transform="translate(320,76)"/>
<path d="M0 0 C1.32 0 2.64 0 4 0 C4 3.63 4 7.26 4 11 C2.68 11 1.36 11 0 11 C0 7.37 0 3.74 0 0 Z " fill="#E2E3E3" transform="translate(373,232)"/>
<path d="M0 0 C1.65 0 3.3 0 5 0 C4.09238938 1.75471386 3.17349289 3.50359264 2.25 5.25 C1.73953125 6.22453125 1.2290625 7.1990625 0.703125 8.203125 C-0.94819881 10.91493199 -2.66491299 12.86796403 -5 15 C-5 13.35 -5 11.7 -5 10 C-4.34 10 -3.68 10 -3 10 C-3 9.34 -3 8.68 -3 8 C-2.34 8 -1.68 8 -1 8 C-0.67 5.36 -0.34 2.72 0 0 Z " fill="#444349" transform="translate(222,134)"/>
<path d="M0 0 C0.66 0.99 1.32 1.98 2 3 C0.54744565 5.31631609 -0.91165412 7.628017 -2.375 9.9375 C-2.7875 10.59685547 -3.2 11.25621094 -3.625 11.93554688 C-6.7734375 16.88671875 -6.7734375 16.88671875 -9 18 C-8.45207105 13.3817417 -6.41035512 10.01850353 -3.9375 6.1875 C-3.56044922 5.59001953 -3.18339844 4.99253906 -2.79492188 4.37695312 C-1.87010434 2.91363423 -0.93597935 1.45620477 0 0 Z " fill="#D5D5D6" transform="translate(232,125)"/>
<path d="M0 0 C1.32 0.33 2.64 0.66 4 1 C2.52504318 3.33609323 1.04531255 5.66890167 -0.4375 8 C-0.85837891 8.66773437 -1.27925781 9.33546875 -1.71289062 10.0234375 C-2.78188817 11.69962565 -3.88802605 13.35200837 -5 15 C-5.33 15 -5.66 15 -6 15 C-6.37815631 10.62756771 -5.34305827 8.34852855 -3 4.6875 C-2.1646875 3.36298828 -2.1646875 3.36298828 -1.3125 2.01171875 C-0.879375 1.34785156 -0.44625 0.68398437 0 0 Z " fill="#5E5E63" transform="translate(265,110)"/>
<path d="M0 0 C0.99 0.33 1.98 0.66 3 1 C1.16508812 5.74018901 -0.91941459 10.36413251 -3 15 C-3.99 14.34 -4.98 13.68 -6 13 C-4.31326082 8.50202887 -2.18326108 4.27113698 0 0 Z " fill="#22242A" transform="translate(320,70)"/>
<path d="M0 0 C-6.94545481 5.44373485 -15.37022617 7.04113624 -24 8 C-20.04674034 5.36449356 -15.87870021 3.95045928 -11.4375 2.3125 C-10.56158203 1.97927734 -9.68566406 1.64605469 -8.78320312 1.30273438 C-7.94595703 0.99271484 -7.10871094 0.68269531 -6.24609375 0.36328125 C-5.47966553 0.07751221 -4.7132373 -0.20825684 -3.92358398 -0.50268555 C-2 -1 -2 -1 0 0 Z " fill="#CB545C" transform="translate(343,109)"/>
<path d="M0 0 C0.66 0 1.32 0 2 0 C1.69201674 1.48011371 1.378482 2.95907325 1.0625 4.4375 C0.88847656 5.26121094 0.71445313 6.08492188 0.53515625 6.93359375 C0 9 0 9 -1 10 C-3.33297433 10.04092937 -5.66705225 10.04241723 -8 10 C-8.33 9.34 -8.66 8.68 -9 8 C-8.13375 7.87625 -8.13375 7.87625 -7.25 7.75 C-4.3298567 6.7766189 -2.98212207 5.32386725 -1 3 C-0.67 2.01 -0.34 1.02 0 0 Z " fill="#625E66" transform="translate(243,96)"/>
<path d="M0 0 C0.66 0.66 1.32 1.32 2 2 C1.625 5.125 1.625 5.125 1 8 C0.34 8 -0.32 8 -1 8 C-1.33 9.98 -1.66 11.96 -2 14 C-2.66 14 -3.32 14 -4 14 C-4 14.99 -4 15.98 -4 17 C-4.66 17 -5.32 17 -6 17 C-6 15.68 -6 14.36 -6 13 C-5.34 13 -4.68 13 -4 13 C-3.79503906 12.14535156 -3.59007812 11.29070312 -3.37890625 10.41015625 C-3.10949219 9.30542969 -2.84007812 8.20070313 -2.5625 7.0625 C-2.29566406 5.96035156 -2.02882812 4.85820313 -1.75390625 3.72265625 C-1 1 -1 1 0 0 Z " fill="#706E75" transform="translate(251,79)"/>
<path d="M0 0 C0.66 0.33 1.32 0.66 2 1 C-4.99954443 7.18564392 -9.68453381 8.32558911 -19 8 C-19 7.67 -19 7.34 -19 7 C-18.26394531 6.90203125 -17.52789062 6.8040625 -16.76953125 6.703125 C-11.06357729 5.82876482 -7.27199277 5.138493 -3 1 C-2.01 0.67 -1.02 0.34 0 0 Z " fill="#3B383E" transform="translate(257,174)"/>
<path d="M0 0 C2.76276177 0.52268466 5.3260876 1.10869587 8 2 C8 2.66 8 3.32 8 4 C10.97851562 3.90234375 10.97851562 3.90234375 13.95703125 3.8046875 C16 4 16 4 19 6 C16 8 16 8 13.4375 8 C8.46434879 6.5532651 4.24088164 3.95017853 0 1 C0 0.67 0 0.34 0 0 Z " fill="#1B1821" transform="translate(329,170)"/>
<path d="M0 0 C0 0.99 0 1.98 0 3 C-1.4096347 3.70180531 -2.82807641 4.38593958 -4.25 5.0625 C-5.03890625 5.44535156 -5.8278125 5.82820313 -6.640625 6.22265625 C-9.25993522 7.08564091 -10.44855176 6.93045933 -13 6 C-5.8 0 -5.8 0 0 0 Z " fill="#BA2F34" transform="translate(347,108)"/>
<path d="M0 0 C0.9590625 0.29261719 1.918125 0.58523437 2.90625 0.88671875 C4.34484375 1.31404297 4.34484375 1.31404297 5.8125 1.75 C7.68162845 2.34395497 9.54566372 2.95402332 11.40625 3.57421875 C11.40625 4.23421875 11.40625 4.89421875 11.40625 5.57421875 C5.35823929 5.02439959 0.10023894 3.66992301 -5.59375 1.57421875 C-2.59375 -0.42578125 -2.59375 -0.42578125 0 0 Z " fill="#67666C" transform="translate(352.59375,165.42578125)"/>
<path d="M0 0 C1.65 0.33 3.3 0.66 5 1 C3.58832253 6.26170694 1.25149768 9.72171358 -2 14 C-3 12 -3 12 -2.44140625 9.94140625 C-2.15136719 9.15636719 -1.86132812 8.37132813 -1.5625 7.5625 C-0.53164355 4.75653648 0 3.02703646 0 0 Z " fill="#444248" transform="translate(235,110)"/>
<path d="M0 0 C0 3 0 3 -1.5 4.6875 C-1.995 5.120625 -2.49 5.55375 -3 6 C-2.67 6.66 -2.34 7.32 -2 8 C-3.98 8.99 -5.96 9.98 -8 11 C-8 10.01 -8 9.02 -8 8 C-8.99 8.66 -9.98 9.32 -11 10 C-10.74609375 8.1328125 -10.74609375 8.1328125 -10 6 C-8.22265625 4.8046875 -8.22265625 4.8046875 -6.0625 3.875 C-3.46790013 2.73544797 -2.03450153 2.03450153 0 0 Z " fill="#2C2D33" transform="translate(355,90)"/>
<path d="M0 0 C2.14208427 3.2131264 2.59687808 5.21065397 3 9 C2.67 9.66 2.34 10.32 2 11 C2.99 11.33 3.98 11.66 5 12 C3.35 12.33 1.7 12.66 0 13 C-1.49084832 8.52745503 -1.49084832 4.47254497 0 0 Z " fill="#3F3E45" transform="translate(294,105)"/>
<path d="M0 0 C2 2 2 2 2 5 C2.66 5 3.32 5 4 5 C4 5.66 4 6.32 4 7 C4.99 7.33 5.98 7.66 7 8 C7 8.66 7 9.32 7 10 C8.32 10.66 9.64 11.32 11 12 C9.1875 12.6875 9.1875 12.6875 7 13 C5.25 11.6875 5.25 11.6875 4 10 C4 9.34 4 8.68 4 8 C3.34 8 2.68 8 2 8 C-0.1519437 4.77208445 -0.20086443 3.71599191 0 0 Z " fill="#3C3942" transform="translate(319,162)"/>
<path d="M0 0 C0.53109375 0.24621094 1.0621875 0.49242187 1.609375 0.74609375 C-1.28881162 3.03768317 -4.22203044 4.82471741 -7.515625 6.49609375 C-8.38445312 6.9446875 -9.25328125 7.39328125 -10.1484375 7.85546875 C-10.88835937 8.149375 -11.62828125 8.44328125 -12.390625 8.74609375 C-13.050625 8.41609375 -13.710625 8.08609375 -14.390625 7.74609375 C-12.4848257 6.37667507 -10.56555927 5.02598212 -8.640625 3.68359375 C-7.57328125 2.92949219 -6.5059375 2.17539063 -5.40625 1.3984375 C-2.390625 -0.25390625 -2.390625 -0.25390625 0 0 Z " fill="#3A3A3E" transform="translate(244.390625,133.25390625)"/>
<path d="M0 0 C1.32 0.66 2.64 1.32 4 2 C4 2.66 4 3.32 4 4 C-3.59 4 -11.18 4 -19 4 C-19 3.67 -19 3.34 -19 3 C-12.73 2.67 -6.46 2.34 0 2 C0 1.34 0 0.68 0 0 Z " fill="#BEBEC1" transform="translate(204,240)"/>
<path d="M0 0 C3.78125 0.6953125 3.78125 0.6953125 5.75 3.4375 C7 6 7 6 7 8 C7.99 8 8.98 8 10 8 C10.33 8.99 10.66 9.98 11 11 C8.70703125 10.81640625 8.70703125 10.81640625 6 10 C4.19921875 7.71484375 4.19921875 7.71484375 2.6875 4.9375 C2.17574219 4.01839844 1.66398437 3.09929687 1.13671875 2.15234375 C0.57404297 1.08693359 0.57404297 1.08693359 0 0 Z " fill="#49494E" transform="translate(322,151)"/>
<path d="M0 0 C0.66 0.33 1.32 0.66 2 1 C2 1.99 2 2.98 2 4 C0.40084119 4.69906942 -1.20455045 5.38389468 -2.8125 6.0625 C-3.70582031 6.44535156 -4.59914062 6.82820312 -5.51953125 7.22265625 C-8 8 -8 8 -11 7 C-10.45730469 6.66226563 -9.91460937 6.32453125 -9.35546875 5.9765625 C-8.64003906 5.53054687 -7.92460937 5.08453125 -7.1875 4.625 C-6.47980469 4.18414062 -5.77210938 3.74328125 -5.04296875 3.2890625 C-3.34567961 2.21811524 -1.66985642 1.11323761 0 0 Z " fill="#19181C" transform="translate(256,126)"/>
<path d="M0 0 C0 0.66 0 1.32 0 2 C-5.445 3.485 -5.445 3.485 -11 5 C-11 4.34 -11 3.68 -11 3 C-12.32 2.67 -13.64 2.34 -15 2 C-9.77487721 0.53329887 -5.4185766 -0.22577402 0 0 Z " fill="#DFCFD0" transform="translate(348,105)"/>
<path d="M0 0 C1.485 0.99 1.485 0.99 3 2 C3 2.66 3 3.32 3 4 C4.32 4.33 5.64 4.66 7 5 C7 6.32 7 7.64 7 9 C7.66 9.33 8.32 9.66 9 10 C8.67 10.99 8.34 11.98 8 13 C7.34 13 6.68 13 6 13 C4.99491199 11.21118264 3.99607264 9.41885304 3 7.625 C2.1646875 6.12839844 2.1646875 6.12839844 1.3125 4.6015625 C0 2 0 2 0 0 Z " fill="#8A888C" transform="translate(302,60)"/>
<path d="M0 0 C0.66 0.66 1.32 1.32 2 2 C-4.93 3.485 -4.93 3.485 -12 5 C-12 4.34 -12 3.68 -12 3 C-14.64 3 -17.28 3 -20 3 C-20 2.67 -20 2.34 -20 2 C-18.89140625 1.93941406 -17.7828125 1.87882812 -16.640625 1.81640625 C-15.1770718 1.73197049 -13.71353075 1.64732401 -12.25 1.5625 C-11.15558594 1.50352539 -11.15558594 1.50352539 -10.0390625 1.44335938 C-5.90791953 1.22685267 -5.90791953 1.22685267 -1.88183594 0.35522461 C-1.26083008 0.23800049 -0.63982422 0.12077637 0 0 Z " fill="#27262A" transform="translate(335,105)"/>
<path d="M0 0 C0 3 0 3 -1.1875 4.5625 C-3.32408088 6.25702966 -5.4765731 6.99062924 -8 8 C-8.515625 8.556875 -9.03125 9.11375 -9.5625 9.6875 C-10.036875 10.120625 -10.51125 10.55375 -11 11 C-13.08984375 10.58203125 -13.08984375 10.58203125 -15 10 C-10.38904465 6.89589281 -5.78072109 3.83855315 -1 1 C-0.67 0.67 -0.34 0.34 0 0 Z " fill="#2B2830" transform="translate(267,163)"/>
<path d="M0 0 C6.46850394 0.61023622 6.46850394 0.61023622 8.875 2.375 C10 4 10 4 11 7 C6.89188572 5.55007731 3.53144334 3.54592427 0 1 C0 0.67 0 0.34 0 0 Z " fill="#3B3A41" transform="translate(308,147)"/>
<path d="M0 0 C1.40253926 4.20761779 -0.09397469 6.11735584 -2 10 C-2.66 10.66 -3.32 11.32 -4 12 C-5.1875 10.3125 -5.1875 10.3125 -6 8 C-4.50692877 4.77810946 -2.6244603 2.3745117 0 0 Z " fill="#0F0E13" transform="translate(281,90)"/>
<path d="M0 0 C0.7734375 0.61875 0.7734375 0.61875 1.5625 1.25 C0.2425 1.58 -1.0775 1.91 -2.4375 2.25 C-2.4375 2.91 -2.4375 3.57 -2.4375 4.25 C-4.0875 4.91 -5.7375 5.57 -7.4375 6.25 C-8.0975 5.26 -8.7575 4.27 -9.4375 3.25 C-3.0375 -0.93461538 -3.0375 -0.93461538 0 0 Z " fill="#28252C" transform="translate(307.4375,149.75)"/>
<path d="M0 0 C0.66 0.99 1.32 1.98 2 3 C1.04532436 4.62715156 0.08613152 6.25165346 -0.875 7.875 C-1.67550781 9.23238281 -1.67550781 9.23238281 -2.4921875 10.6171875 C-4 13 -4 13 -6 15 C-7 12 -7 12 -5.56640625 9.08203125 C-4.90511719 8.00308594 -4.24382812 6.92414063 -3.5625 5.8125 C-2.90378906 4.72582031 -2.24507812 3.63914062 -1.56640625 2.51953125 C-1.04949219 1.68808594 -0.53257812 0.85664062 0 0 Z " fill="#D4D4D6" transform="translate(240,111)"/>
<path d="M0 0 C2.6875 -0.375 2.6875 -0.375 6 0 C8.16704095 1.81426684 9.38125003 3.61948534 11 6 C11 6.66 11 7.32 11 8 C10.34 8 9.68 8 9 8 C9 7.01 9 6.02 9 5 C5.41672247 3.99782936 5.41672247 3.99782936 2 5 C1.34 3.35 0.68 1.7 0 0 Z " fill="#69666D" transform="translate(306,164)"/>
<path d="M0 0 C-0.33 0.66 -0.66 1.32 -1 2 C-1.22467831 3.53668865 -1.40796805 5.07968054 -1.5625 6.625 C-1.64628906 7.44226563 -1.73007812 8.25953125 -1.81640625 9.1015625 C-1.87699219 9.72804688 -1.93757813 10.35453125 -2 11 C-2.66 10.67 -3.32 10.34 -4 10 C-3.67 8.02 -3.34 6.04 -3 4 C-3.66 4 -4.32 4 -5 4 C-5 3.34 -5 2.68 -5 2 C-6.32 1.67 -7.64 1.34 -9 1 C-2.25 -1.125 -2.25 -1.125 0 0 Z " fill="#2D1D23" transform="translate(386,96)"/>
<path d="M0 0 C1.65 0 3.3 0 5 0 C5 4.29 5 8.58 5 13 C3.35 13.33 1.7 13.66 0 14 C0 13.01 0 12.02 0 11 C1.32 11 2.64 11 4 11 C4 7.7 4 4.4 4 1 C2.68 0.67 1.36 0.34 0 0 Z " fill="#CFCED1" transform="translate(281,231)"/>
<path d="M0 0 C1.65 0 3.3 0 5 0 C3.68 0.33 2.36 0.66 1 1 C1 4.3 1 7.6 1 11 C2.32 11 3.64 11 5 11 C5 11.99 5 12.98 5 14 C3.35 13.67 1.7 13.34 0 13 C0 8.71 0 4.42 0 0 Z " fill="#CECDCE" transform="translate(214,231)"/>
<path d="M0 0 C4.83256305 0.41421969 6.82679218 2.46413986 10 6 C7 7 7 7 4.8125 6.0625 C4.214375 5.711875 3.61625 5.36125 3 5 C3 4.34 3 3.68 3 3 C2.34 3 1.68 3 1 3 C0.67 2.01 0.34 1.02 0 0 Z " fill="#48454D" transform="translate(327,175)"/>
<path d="M0 0 C2.40575607 2.18517099 3.79535581 4.25919671 5.1875 7.1875 C5.53167969 7.90292969 5.87585938 8.61835937 6.23046875 9.35546875 C6.48441406 9.89816406 6.73835938 10.44085938 7 11 C3.21875 10.28125 3.21875 10.28125 1.25 7.75 C-0.05518125 4.87860126 -0.26648789 3.10902534 0 0 Z " fill="#3B3C40" transform="translate(297,96)"/>
<path d="M0 0 C0.33 0 0.66 0 1 0 C1.32136655 4.60625394 0.91033076 7.33513904 -2 11 C-2.99 11 -3.98 11 -5 11 C-3.55049545 7.2089881 -1.84827434 3.6125362 0 0 Z " fill="#6F6E73" transform="translate(271,99)"/>
<path d="M0 0 C1.1875 1.625 1.1875 1.625 2 4 C0.625 7.25 0.625 7.25 -1 10 C-1.99 10 -2.98 10 -4 10 C-3.67 8.02 -3.34 6.04 -3 4 C-2.34 4 -1.68 4 -1 4 C-0.67 2.68 -0.34 1.36 0 0 Z " fill="#525156" transform="translate(253,83)"/>
<path d="M0 0 C-1.45205479 4.59817352 -1.45205479 4.59817352 -3.875 6.375 C-6.35288368 7.10378932 -7.56411144 6.70324816 -10 6 C-8.71283353 4.99421411 -7.42011342 3.99553202 -6.125 3 C-5.40570313 2.443125 -4.68640625 1.88625 -3.9453125 1.3125 C-2 0 -2 0 0 0 Z " fill="#2F2C35" transform="translate(252,174)"/>
<path d="M0 0 C0.66 0.33 1.32 0.66 2 1 C-1.32307692 6.78461538 -1.32307692 6.78461538 -4.75 7.875 C-5.4925 7.91625 -6.235 7.9575 -7 8 C-7 7.34 -7 6.68 -7 6 C-6.34 6 -5.68 6 -5 6 C-4.731875 5.38125 -4.46375 4.7625 -4.1875 4.125 C-3 2 -3 2 0 0 Z " fill="#810406" transform="translate(254,156)"/>
<path d="M0 0 C-0.66 0 -1.32 0 -2 0 C-2 0.66 -2 1.32 -2 2 C-6.29 2.99 -10.58 3.98 -15 5 C-15 4.34 -15 3.68 -15 3 C-13.06643218 2.30151736 -11.12797702 1.61655186 -9.1875 0.9375 C-8.10855469 0.55464844 -7.02960938 0.17179687 -5.91796875 -0.22265625 C-3 -1 -3 -1 0 0 Z " fill="#58555B" transform="translate(359,100)"/>
<path d="M0 0 C0.66 0 1.32 0 2 0 C1.67 1.32 1.34 2.64 1 4 C0.34 4 -0.32 4 -1 4 C-1 5.32 -1 6.64 -1 8 C-2.32 7.67 -3.64 7.34 -5 7 C-5 5.68 -5 4.36 -5 3 C-3.35 2.67 -1.7 2.34 0 2 C0 1.34 0 0.68 0 0 Z " fill="#7F7C83" transform="translate(246,88)"/>
<path d="M0 0 C1.50751963 2.39429588 2.00562203 3.76387491 1.9375 6.625 C1 9 1 9 -1.5625 10.3125 C-2.7690625 10.6528125 -2.7690625 10.6528125 -4 11 C-2.7874262 7.27566618 -1.49140021 3.62197194 0 0 Z " fill="#18161C" transform="translate(283,82)"/>
<path d="M0 0 C0 0.66 0 1.32 0 2 C2.31 2 4.62 2 7 2 C7 2.33 7 2.66 7 3 C2.05 3.33 -2.9 3.66 -8 4 C-5.52914451 0.29371676 -4.37054922 0 0 0 Z " fill="#7C7D83" transform="translate(129,244)"/>
<path d="M0 0 C0.33 0.66 0.66 1.32 1 2 C-0.4375 4.625 -0.4375 4.625 -2 7 C-5.63 6.34 -9.26 5.68 -13 5 C-13 4.67 -13 4.34 -13 4 C-9.7 4 -6.4 4 -3 4 C-3 3.34 -3 2.68 -3 2 C-2.01 1.34 -1.02 0.68 0 0 Z " fill="#3A383E" transform="translate(230,126)"/>
<path d="M0 0 C0.33 1.32 0.66 2.64 1 4 C0.01 4.495 0.01 4.495 -1 5 C-1 5.66 -1 6.32 -1 7 C-2.65 7 -4.3 7 -6 7 C-5.67 5.02 -5.34 3.04 -5 1 C-4.34 1.66 -3.68 2.32 -3 3 C-2.01 2.01 -1.02 1.02 0 0 Z " fill="#706E75" transform="translate(233,110)"/>
<path d="M0 0 C-1.33345504 3.59007126 -2.8943231 6.79570907 -5 10 C-5.33 10 -5.66 10 -6 10 C-5.38909774 3.52443609 -5.38909774 3.52443609 -3.5625 1.0625 C-2 0 -2 0 0 0 Z " fill="#5B5B5E" transform="translate(278,93)"/>
<path d="M0 0 C0.99 0 1.98 0 3 0 C3.8638129 1.45264038 4.71580454 2.9123163 5.5625 4.375 C6.27599609 5.59316406 6.27599609 5.59316406 7.00390625 6.8359375 C7.33261719 7.55007812 7.66132813 8.26421875 8 9 C7.67 9.66 7.34 10.32 7 11 C3.18699218 7.7129243 1.77027754 4.60272162 0 0 Z " fill="#48494B" transform="translate(289,85)"/>
<path d="M0 0 C2.97246802 2.54782974 4.41535288 5.45340883 6 9 C6 9.66 6 10.32 6 11 C5.01 10.67 4.02 10.34 3 10 C2.67 8.02 2.34 6.04 2 4 C1.01 4.33 0.02 4.66 -1 5 C-0.67 3.35 -0.34 1.7 0 0 Z " fill="#68686A" transform="translate(285,74)"/>
<path d="M0 0 C0.66 0.33 1.32 0.66 2 1 C1.67 1.639375 1.34 2.27875 1 2.9375 C-0.07271225 4.76794567 -0.07271225 4.76794567 0 6 C2.64 6.33 5.28 6.66 8 7 C8 7.33 8 7.66 8 8 C5.36 8 2.72 8 0 8 C-0.33 8.66 -0.66 9.32 -1 10 C-2.1875 7.8125 -2.1875 7.8125 -3 5 C-1.625 2.1875 -1.625 2.1875 0 0 Z " fill="#49474E" transform="translate(343,123)"/>
<path d="M0 0 C1 3 1 3 0.00390625 5.04296875 C-0.47175781 5.75066406 -0.94742188 6.45835938 -1.4375 7.1875 C-1.91058594 7.90292969 -2.38367188 8.61835937 -2.87109375 9.35546875 C-3.42990234 10.16951172 -3.42990234 10.16951172 -4 11 C-5.32 9.35 -6.64 7.7 -8 6 C-6.35 5.67 -4.7 5.34 -3 5 C-2.67 4.01 -2.34 3.02 -2 2 C-1.34 2 -0.68 2 0 2 C0 1.34 0 0.68 0 0 Z " fill="#464349" transform="translate(245,100)"/>
<path d="M0 0 C2.05078125 0.03255208 4.1015625 0.06510417 6.15234375 0.09765625 C5.82234375 1.41765625 5.49234375 2.73765625 5.15234375 4.09765625 C3.83234375 4.09765625 2.51234375 4.09765625 1.15234375 4.09765625 C1.15234375 3.43765625 1.15234375 2.77765625 1.15234375 2.09765625 C-0.16765625 1.76765625 -1.48765625 1.43765625 -2.84765625 1.09765625 C-1.84765625 0.09765625 -1.84765625 0.09765625 0 0 Z " fill="#8B888F" transform="translate(234.84765625,87.90234375)"/>
<path d="M0 0 C-1.36983503 3.16115776 -1.9890638 3.9927092 -5 6 C-5.99 6 -6.98 6 -8 6 C-6.53781513 1.3697479 -6.53781513 1.3697479 -4 -0.375 C-2 -1 -2 -1 0 0 Z " fill="#999B9D" transform="translate(228,141)"/>
<path d="M0 0 C4.56278027 -0.36995516 4.56278027 -0.36995516 6.625 1.375 C7.07875 1.91125 7.5325 2.4475 8 3 C8.99 3.66 9.98 4.32 11 5 C9.234375 5.6484375 9.234375 5.6484375 7 6 C5.078125 5.0390625 5.078125 5.0390625 3.25 3.625 C2.63640625 3.16351563 2.0228125 2.70203125 1.390625 2.2265625 C0.93171875 1.82179687 0.4728125 1.41703125 0 1 C0 0.67 0 0.34 0 0 Z " fill="#36333C" transform="translate(330,175)"/>
<path d="M0 0 C0.33 0.66 0.66 1.32 1 2 C2.65 2 4.3 2 6 2 C5.34 3.32 4.68 4.64 4 6 C2.35 5.67 0.7 5.34 -1 5 C-0.67 3.35 -0.34 1.7 0 0 Z " fill="#B0B2B5" transform="translate(118,241)"/>
<path d="M0 0 C1.32 0.66 2.64 1.32 4 2 C1.82575883 4.50037734 0.26954202 5.43628586 -3 6 C-2.42655063 3.13275314 -2.1385485 2.1385485 0 0 Z " fill="#770203" transform="translate(213,177)"/>
<path d="M0 0 C2.4375 1.1875 2.4375 1.1875 5 3 C5.8125 5.6875 5.8125 5.6875 6 8 C5.34 8 4.68 8 4 8 C4 7.34 4 6.68 4 6 C3.34 6 2.68 6 2 6 C2 5.34 2 4.68 2 4 C1.34 3.67 0.68 3.34 0 3 C0 2.01 0 1.02 0 0 Z " fill="#2E2D34" transform="translate(314,154)"/>
<path d="M0 0 C5.875 3.75 5.875 3.75 7 6 C4.69 6.33 2.38 6.66 0 7 C0 4.69 0 2.38 0 0 Z " fill="#767177" transform="translate(217,97)"/>
<path d="M0 0 C0.33 0 0.66 0 1 0 C1 1.65 1 3.3 1 5 C-2.3 5 -5.6 5 -9 5 C-7.68 4.67 -6.36 4.34 -5 4 C-4.67 3.34 -4.34 2.68 -4 2 C-3.01 2 -2.02 2 -1 2 C-0.67 1.34 -0.34 0.68 0 0 Z " fill="#B6B7BB" transform="translate(138,240)"/>
<path d="M0 0 C0.99 0.66 1.98 1.32 3 2 C2.67 2.99 2.34 3.98 2 5 C-0.35171131 4.40138258 -2.6859378 3.73075648 -5 3 C-5.33 2.34 -5.66 1.68 -6 1 C-3.03 1.495 -3.03 1.495 0 2 C0 1.34 0 0.68 0 0 Z " fill="#B6B7BB" transform="translate(385,241)"/>
<path d="M0 0 C5.28 0 10.56 0 16 0 C16 0.33 16 0.66 16 1 C15.02417969 1.06058594 14.04835938 1.12117187 13.04296875 1.18359375 C11.13451172 1.30927734 11.13451172 1.30927734 9.1875 1.4375 C7.92292969 1.51871094 6.65835937 1.59992188 5.35546875 1.68359375 C2.00818107 1.87184547 2.00818107 1.87184547 -1 3 C-0.67 2.01 -0.34 1.02 0 0 Z " fill="#23272C" transform="translate(313,236)"/>
<path d="M0 0 C1.32 0.33 2.64 0.66 4 1 C3.4225 1.556875 2.845 2.11375 2.25 2.6875 C-0.0110273 5.01133361 -2.01064607 7.44225924 -4 10 C-3.43454163 6.04179141 -2.19097652 3.3340947 0 0 Z " fill="#DFE0E1" transform="translate(219,147)"/>
<path d="M0 0 C0 0.66 0 1.32 0 2 C1.32 2 2.64 2 4 2 C3.67 2.66 3.34 3.32 3 4 C-2.53846154 4.36923077 -2.53846154 4.36923077 -4.875 2.5 C-5.24625 2.005 -5.6175 1.51 -6 1 C-4 0 -4 0 0 0 Z " fill="#27262E" transform="translate(310,144)"/>
<path d="M0 0 C0.66 0.99 1.32 1.98 2 3 C0.35 5.31 -1.3 7.62 -3 10 C-4 7 -4 7 -3.22265625 5.17578125 C-2.1484375 3.45052083 -1.07421875 1.72526042 0 0 Z " fill="#CACACD" transform="translate(227,133)"/>
<path d="M0 0 C0.66 0 1.32 0 2 0 C2 2.31 2 4.62 2 7 C-0.64 6.34 -3.28 5.68 -6 5 C-6 4.67 -6 4.34 -6 4 C-4.02 4 -2.04 4 0 4 C0 2.68 0 1.36 0 0 Z " fill="#3F3E43" transform="translate(289,98)"/>
<path d="M0 0 C1.32 0.66 2.64 1.32 4 2 C1.1875 4.0625 1.1875 4.0625 -2 6 C-2.99 5.67 -3.98 5.34 -5 5 C-3.35 3.35 -1.7 1.7 0 0 Z " fill="#19171E" transform="translate(302,147)"/>
<path d="M0 0 C3 3.625 3 3.625 3 7 C1.68 7 0.36 7 -1 7 C-2 4 -2 4 -1.0625 1.8125 C-0.5365625 0.9153125 -0.5365625 0.9153125 0 0 Z " fill="#1B1920" transform="translate(279,114)"/>
<path d="M0 0 C0.99 0.33 1.98 0.66 3 1 C2.01 1.33 1.02 1.66 0 2 C0 2.66 0 3.32 0 4 C-1.98 4.99 -3.96 5.98 -6 7 C-6.33 6.01 -6.66 5.02 -7 4 C-6.030625 3.525625 -5.06125 3.05125 -4.0625 2.5625 C-1.19522563 1.29806053 -1.19522563 1.29806053 0 0 Z " fill="#7C7A80" transform="translate(260,69)"/>
<path d="M0 0 C1.32 0.66 2.64 1.32 4 2 C2.35 3.32 0.7 4.64 -1 6 C-1.66 5.34 -2.32 4.68 -3 4 C-2.01 2.68 -1.02 1.36 0 0 Z " fill="#BDB1B2" transform="translate(202,179)"/>
<path d="M0 0 C1.65 0.33 3.3 0.66 5 1 C3.60804085 3.7839183 1.84424221 3.97898997 -1 5 C-0.67 3.35 -0.34 1.7 0 0 Z " fill="#951519" transform="translate(273,138)"/>
<path d="M0 0 C-1.28913487 0.67154933 -2.58140204 1.33708859 -3.875 2 C-4.59429687 2.37125 -5.31359375 2.7425 -6.0546875 3.125 C-8 4 -8 4 -10 4 C-9 1 -9 1 -6.6875 -0.25 C-3.83402593 -1.04631835 -2.75197675 -0.8214856 0 0 Z " fill="#DAD9DA" transform="translate(262,130)"/>
<path d="M0 0 C3 1 3 1 5 4 C4.625 6.6875 4.625 6.6875 4 9 C2.00902154 6.01353231 1.05875074 3.40312738 0 0 Z " fill="#232229" transform="translate(294,104)"/>
<path d="M0 0 C0.33 1.32 0.66 2.64 1 4 C-2.3 4.66 -5.6 5.32 -9 6 C-8 4 -8 4 -5.0625 3 C-4.051875 2.67 -3.04125 2.34 -2 2 C-1.34 1.34 -0.68 0.68 0 0 Z " fill="#474148" transform="translate(382,91)"/>
<path d="M0 0 C0.33 0.99 0.66 1.98 1 3 C2.32 2.67 3.64 2.34 5 2 C5 3.32 5 4.64 5 6 C3.68 6.33 2.36 6.66 1 7 C0.67 4.69 0.34 2.38 0 0 Z " fill="#CBCBCD" transform="translate(331,239)"/>
<path d="M0 0 C-1.45264038 0.8638129 -2.9123163 1.71580454 -4.375 2.5625 C-5.59316406 3.27599609 -5.59316406 3.27599609 -6.8359375 4.00390625 C-7.55007812 4.33261719 -8.26421875 4.66132813 -9 5 C-9.66 4.67 -10.32 4.34 -11 4 C-7.84441727 0.34616736 -4.73375145 -1.57791715 0 0 Z " fill="#77090D" transform="translate(206,186)"/>
<path d="M0 0 C0.66 0.99 1.32 1.98 2 3 C0.35 4.32 -1.3 5.64 -3 7 C-3.33 6.01 -3.66 5.02 -4 4 C-2.68 2.68 -1.36 1.36 0 0 Z " fill="#17161C" transform="translate(273,111)"/>
<path d="M0 0 C0.33 1.32 0.66 2.64 1 4 C-0.65 5.32 -2.3 6.64 -4 8 C-4.66 7.67 -5.32 7.34 -6 7 C-4.02 4.69 -2.04 2.38 0 0 Z " fill="#B8B6BA" transform="translate(345,42)"/>
<path d="M0 0 C0.66 0.33 1.32 0.66 2 1 C0.1875 3 0.1875 3 -2 5 C-2.99 5 -3.98 5 -5 5 C-4.1875 3.0625 -4.1875 3.0625 -3 1 C-2.01 0.67 -1.02 0.34 0 0 Z " fill="#403D45" transform="translate(257,174)"/>
<path d="M0 0 C0.33 0 0.66 0 1 0 C1 2.64 1 5.28 1 8 C-0.5625 6.75 -0.5625 6.75 -2 5 C-1.74853421 2.86254078 -1.54074221 1.54074221 0 0 Z " fill="#010102" transform="translate(274,103)"/>
<path d="M0 0 C0.33 0 0.66 0 1 0 C0.67 2.64 0.34 5.28 0 8 C-0.99 8 -1.98 8 -3 8 C-1.125 2.25 -1.125 2.25 0 0 Z " fill="#818184" transform="translate(283,77)"/>
</svg>
