<svg xmlns="http://www.w3.org/2000/svg" viewBox="0 0 320 320" fill="none">
  <defs>
    <linearGradient id="solution-ring" x1="54" y1="42" x2="266" y2="198" gradientUnits="userSpaceOnUse">
      <stop offset="0" stop-color="#a100ff"/>
      <stop offset="0.48" stop-color="#6a63ff"/>
      <stop offset="1" stop-color="#17d8ff"/>
    </linearGradient>
    <filter id="solution-glow" x="16" y="4" width="288" height="238" filterUnits="userSpaceOnUse" color-interpolation-filters="sRGB">
      <feGaussianBlur stdDeviation="8" result="blur"/>
      <feColorMatrix in="blur" type="matrix" values="1 0 0 0 0  0 1 0 0 0  0 0 1 0 0  0 0 0 0.24 0"/>
      <feBlend in="SourceGraphic" mode="screen"/>
    </filter>
    <linearGradient id="solution-text-shadow" x1="74" y1="188" x2="248" y2="214" gradientUnits="userSpaceOnUse">
      <stop offset="0" stop-color="#f6f8ff"/>
      <stop offset="1" stop-color="#d7ebff"/>
    </linearGradient>
  </defs>

  <g filter="url(#solution-glow)">
    <circle cx="160" cy="108" r="72" stroke="url(#solution-ring)" stroke-width="18" stroke-linecap="round" stroke-dasharray="0.1 16"/>
    <circle cx="160" cy="108" r="52" stroke="url(#solution-ring)" stroke-width="12" stroke-linecap="round" stroke-dasharray="0.1 12" opacity="0.96"/>
  </g>

  <path fill="url(#solution-text-shadow)" d="M84.4 183.17c0-2.86.86-5.14 2.58-6.86 1.76-1.72 4.16-2.58 7.22-2.58h22.72v9.17H95.48c-1.15 0-1.72.45-1.72 1.35v2.09c0 .9.57 1.35 1.72 1.35h16.85c3.06 0 5.44.86 7.13 2.58 1.72 1.72 2.58 4 2.58 6.86v8.31c0 2.86-.86 5.16-2.58 6.9-1.69 1.72-4.07 2.58-7.13 2.58H84.76v-9.17h22.09c1.14 0 1.72-.45 1.72-1.35v-2.58c0-.9-.58-1.35-1.72-1.35H93.58c-3.06 0-5.46-.86-7.22-2.58-1.72-1.72-2.58-4.02-2.58-6.9v-7.95Zm44.62-9.44h13.63v41h-13.63v-41Zm20.27 0h40.1v9.17h-13.23v31.83h-13.63V182.9h-13.24v-9.17Zm46.19 0h37.96v9.17h-24.33v6.08h20.57v8.45h-20.57v8.13h24.69v9.17h-38.32v-41Zm43.9 0h13.63v31.83h22.01v9.17h-35.64v-41Z"/>
</svg>
